<svg width="24" height="24" viewBox="0 0 24 24" fill="none" xmlns="http://www.w3.org/2000/svg">
<path d="M12.5859 3.46874C12.8842 3.64141 13.0611 3.89645 13.1719 4.21874C13.1834 4.3508 13.1834 4.3508 13.1832 4.49784C13.1834 4.58174 13.1834 4.58174 13.1835 4.66734C13.183 4.75878 13.183 4.75878 13.1825 4.85207C13.1825 4.91722 13.1825 4.98237 13.1826 5.04752C13.1826 5.22406 13.182 5.40059 13.1814 5.57713C13.1808 5.76174 13.1807 5.94636 13.1806 6.13097C13.1803 6.48042 13.1796 6.82987 13.1786 7.17932C13.1776 7.57721 13.1771 7.97511 13.1766 8.37301C13.1756 9.19138 13.174 10.0097 13.1719 10.8281C13.2055 10.8279 13.2391 10.8277 13.2738 10.8275C14.0935 10.8223 14.9132 10.8184 15.7329 10.816C16.1293 10.8148 16.5257 10.8131 16.9221 10.8104C17.2677 10.8081 17.6134 10.8066 17.959 10.8061C18.1419 10.8058 18.3248 10.805 18.5077 10.8033C18.6801 10.8017 18.8525 10.8013 19.025 10.8016C19.1178 10.8015 19.2107 10.8003 19.3035 10.799C19.6656 10.801 19.9511 10.8473 20.25 11.0625C20.5666 11.3973 20.6505 11.7028 20.6424 12.1602C20.612 12.454 20.5129 12.6785 20.2998 12.8848C20.0484 13.0829 19.8259 13.1837 19.5022 13.1831C19.4462 13.1833 19.3903 13.1834 19.3327 13.1835C19.2717 13.1832 19.2107 13.1829 19.1479 13.1825C19.0828 13.1825 19.0176 13.1825 18.9525 13.1825C18.7759 13.1826 18.5994 13.182 18.4229 13.1814C18.2383 13.1808 18.0536 13.1807 17.869 13.1806C17.5196 13.1803 17.1701 13.1796 16.8207 13.1786C16.4228 13.1776 16.0249 13.1771 15.627 13.1766C14.8086 13.1756 13.9903 13.174 13.1719 13.1719C13.1721 13.2055 13.1723 13.2391 13.1725 13.2738C13.1777 14.0935 13.1816 14.9131 13.184 15.7328C13.1852 16.1292 13.1869 16.5256 13.1896 16.922C13.1919 17.2677 13.1934 17.6133 13.1939 17.959C13.1942 18.1419 13.195 18.3248 13.1967 18.5076C13.1983 18.6801 13.1987 18.8525 13.1984 19.025C13.1985 19.1178 13.1997 19.2106 13.201 19.3035C13.199 19.6656 13.1527 19.951 12.9375 20.25C12.6027 20.5666 12.2972 20.6505 11.8398 20.6424C11.546 20.6119 11.3215 20.5129 11.1152 20.2998C10.9171 20.0483 10.8163 19.8259 10.8169 19.5021C10.8167 19.4182 10.8167 19.4182 10.8165 19.3326C10.817 19.2412 10.817 19.2412 10.8175 19.1479C10.8175 19.0828 10.8175 19.0176 10.8175 18.9525C10.8174 18.7759 10.818 18.5994 10.8186 18.4228C10.8192 18.2382 10.8193 18.0536 10.8194 17.869C10.8197 17.5196 10.8204 17.1701 10.8214 16.8207C10.8224 16.4228 10.8229 16.0249 10.8234 15.627C10.8244 14.8086 10.826 13.9902 10.8281 13.1719C10.7945 13.1721 10.7609 13.1723 10.7262 13.1725C9.90654 13.1777 9.08685 13.1816 8.26716 13.184C7.87075 13.1852 7.47435 13.1869 7.07795 13.1895C6.7323 13.1919 6.38666 13.1934 6.041 13.1939C5.85811 13.1942 5.67524 13.1949 5.49235 13.1966C5.3199 13.1982 5.14748 13.1987 4.97503 13.1984C4.88219 13.1985 4.78935 13.1997 4.69652 13.201C4.33439 13.1989 4.04896 13.1527 3.75001 12.9375C3.43339 12.6027 3.34947 12.2972 3.35761 11.8398C3.38806 11.5459 3.48708 11.3215 3.7002 11.1152C3.95166 10.9171 4.17409 10.8163 4.49786 10.8168C4.58176 10.8166 4.58176 10.8166 4.66736 10.8164C4.72832 10.8168 4.78928 10.8171 4.85209 10.8175C4.91724 10.8175 4.98239 10.8175 5.04754 10.8174C5.22408 10.8174 5.40061 10.818 5.57715 10.8186C5.76176 10.8192 5.94638 10.8192 6.131 10.8194C6.48044 10.8197 6.82989 10.8204 7.17934 10.8214C7.57724 10.8224 7.97513 10.8229 8.37303 10.8234C9.1914 10.8244 10.0098 10.826 10.8281 10.8281C10.8279 10.7945 10.8277 10.7609 10.8275 10.7262C10.8223 9.90651 10.8184 9.08683 10.816 8.26713C10.8148 7.87073 10.8131 7.47433 10.8105 7.07793C10.8081 6.73228 10.8066 6.38664 10.8061 6.04098C10.8058 5.85809 10.8051 5.67522 10.8034 5.49233C10.8018 5.31988 10.8013 5.14746 10.8016 4.975C10.8015 4.88217 10.8003 4.78933 10.799 4.6965C10.801 4.33437 10.8473 4.04894 11.0625 3.74999C11.4818 3.35352 12.0438 3.22442 12.5859 3.46874Z" fill="#ADBBDA"/>
</svg>
