<svg width="24" height="24" viewBox="0 0 24 24" fill="none" xmlns="http://www.w3.org/2000/svg">
<g clip-path="url(#clip0_8_5)">
<g clip-path="url(#clip1_8_5)">
<path d="M11.5875 0.0128737C11.5375 0.0191237 11.5 0.0409987 11.5 0.0566237C11.5 0.0722487 11.4719 0.0847487 11.4406 0.0847487C11.4063 0.0847487 11.3594 0.106624 11.3313 0.131624C11.3063 0.156624 11.2688 0.178499 11.25 0.178499C11.2313 0.178499 11.2094 0.200374 11.2 0.225374C11.1875 0.250374 11.1625 0.272249 11.1406 0.272249C11.1188 0.272249 11.0531 0.331624 10.9969 0.403499C10.9375 0.478499 10.8813 0.544124 10.8719 0.553499C10.8594 0.562874 10.8375 0.609749 10.8281 0.656624C10.8156 0.703499 10.7938 0.740999 10.7813 0.740999C10.7688 0.740999 10.7469 0.790999 10.7375 0.850374C10.725 0.909749 10.7031 0.959749 10.6875 0.959749C10.675 0.959749 10.6531 1.0035 10.6406 1.05662C10.6281 1.10975 10.6 1.18787 10.575 1.23475C10.55 1.28162 10.5313 1.33787 10.5313 1.35662C10.5313 1.3785 10.5188 1.39725 10.5031 1.39725C10.4875 1.39725 10.4656 1.44725 10.4563 1.50662C10.4438 1.566 10.4219 1.616 10.4063 1.616C10.3938 1.616 10.3719 1.65975 10.3594 1.71287C10.3469 1.766 10.3188 1.84412 10.2938 1.891C10.2688 1.93787 10.25 1.99412 10.25 2.01287C10.25 2.03475 10.2375 2.0535 10.2219 2.0535C10.2063 2.0535 10.1844 2.1035 10.175 2.16287C10.1625 2.22225 10.1406 2.27225 10.125 2.27225C10.1063 2.27225 10.0844 2.3285 10.075 2.39725C10.0625 2.466 10.0438 2.52225 10.0313 2.52225C10.0156 2.52225 9.99688 2.56287 9.98438 2.616C9.97188 2.666 9.95313 2.70975 9.9375 2.70975C9.925 2.70975 9.90313 2.75975 9.89375 2.81912C9.88125 2.8785 9.85938 2.9285 9.84375 2.9285C9.825 2.9285 9.80313 2.98475 9.79375 3.0535C9.78125 3.12225 9.7625 3.1785 9.75 3.1785C9.73438 3.1785 9.71563 3.21912 9.70313 3.27225C9.69063 3.32225 9.67188 3.366 9.65625 3.366C9.64375 3.366 9.62188 3.416 9.6125 3.47537C9.6 3.53475 9.57813 3.58475 9.5625 3.58475C9.54375 3.58475 9.52188 3.641 9.5125 3.70975C9.5 3.7785 9.48125 3.83475 9.46563 3.83475C9.45 3.83475 9.4375 3.8535 9.4375 3.87225C9.43438 3.89412 9.40938 3.96912 9.375 4.03787C9.34063 4.10662 9.31563 4.18162 9.3125 4.20037C9.3125 4.22225 9.3 4.241 9.28438 4.241C9.26875 4.241 9.24688 4.29725 9.23438 4.366C9.22188 4.43475 9.2 4.491 9.18438 4.491C9.16875 4.491 9.15625 4.50662 9.15625 4.52537C9.15625 4.5535 9.10938 4.666 8.98125 4.95037C8.95625 5.0035 8.9375 5.06912 8.9375 5.09725C8.9375 5.12537 8.925 5.14725 8.90625 5.14725C8.89063 5.14725 8.875 5.16287 8.875 5.18162C8.875 5.20037 8.85625 5.25975 8.83125 5.31287C8.69375 5.61287 8.65625 5.70975 8.65625 5.7535C8.65625 5.78162 8.64375 5.8035 8.625 5.8035C8.60938 5.8035 8.59375 5.81912 8.59375 5.83787C8.59375 5.86912 8.49375 6.116 8.44063 6.20975C8.425 6.23787 8.40313 6.3035 8.39063 6.35975C8.38125 6.416 8.35625 6.45975 8.34375 6.45975C8.32813 6.45975 8.30625 6.50975 8.29375 6.56912C8.28438 6.6285 8.2625 6.6785 8.24688 6.6785C8.23125 6.6785 8.21875 6.69725 8.21875 6.716C8.21875 6.73787 8.2 6.79412 8.175 6.83787C8.15313 6.88162 8.125 6.95662 8.1125 7.00975C8.08125 7.12537 8.04688 7.14725 7.86875 7.14725C7.7875 7.14725 7.71563 7.15975 7.70625 7.17537C7.69688 7.191 7.4625 7.21287 7.1875 7.22537C6.9125 7.23787 6.6875 7.25975 6.6875 7.27225C6.6875 7.28475 6.45625 7.30662 6.17188 7.31912C5.8875 7.33162 5.65625 7.3535 5.65625 7.366C5.65625 7.3785 5.425 7.40037 5.14063 7.41287C4.85625 7.42537 4.625 7.44725 4.625 7.45975C4.625 7.47225 4.39375 7.49412 4.10938 7.50662C3.825 7.51912 3.59375 7.541 3.59375 7.5535C3.59375 7.566 3.3625 7.58787 3.07813 7.60037C2.79375 7.61287 2.5625 7.63475 2.5625 7.64725C2.5625 7.65975 2.33125 7.68162 2.04688 7.69412C1.7625 7.70662 1.53125 7.72537 1.53125 7.741C1.53125 7.7535 1.39063 7.77225 1.21875 7.78162C1.04375 7.791 0.8875 7.81287 0.865625 7.8285C0.84375 7.84412 0.78125 7.86912 0.728125 7.88162C0.671875 7.891 0.625 7.916 0.625 7.93162C0.625 7.94725 0.603125 7.95975 0.578125 7.95975C0.55 7.95975 0.521875 7.98162 0.5125 8.00662C0.5 8.03162 0.475 8.0535 0.453125 8.0535C0.4125 8.0535 0.278125 8.19725 0.1875 8.33475C0.1625 8.37225 0.121875 8.42225 0.103125 8.44412C0.0375 8.51287 0.003125 8.741 0 9.0785C0 9.391 0.04375 9.6785 0.09375 9.6785C0.10625 9.6785 0.128125 9.716 0.140625 9.76287C0.1625 9.85975 0.98125 10.6629 1.09688 10.7066C1.11563 10.7097 1.19688 10.7816 1.28125 10.8629C1.46875 11.041 1.76563 11.3066 1.89063 11.4035C1.94063 11.4441 2.03438 11.5285 2.09688 11.591C2.15938 11.6566 2.225 11.7097 2.24063 11.7097C2.25625 11.7097 2.30313 11.7472 2.34375 11.7972C2.3875 11.8441 2.49063 11.9379 2.575 12.0066C2.65938 12.0754 2.79063 12.1879 2.86563 12.2566C3.08125 12.4597 3.29063 12.641 3.38438 12.7129C3.43438 12.7504 3.53438 12.8379 3.60938 12.9097C3.88438 13.166 4.11563 13.3722 4.15938 13.3972C4.20625 13.4254 4.34375 13.5472 4.6875 13.866C4.79688 13.9691 4.9 14.0535 4.9125 14.0535C4.925 14.0535 5.00313 14.1222 5.0875 14.2097C5.17188 14.2941 5.25 14.366 5.2625 14.366C5.275 14.366 5.35625 14.4347 5.44063 14.5191L5.6 14.6754L5.57813 14.8504C5.56563 14.9441 5.54375 15.0316 5.53125 15.0379C5.51563 15.0472 5.49375 15.1441 5.48438 15.2566C5.47188 15.3691 5.45 15.4597 5.4375 15.4597C5.42188 15.4597 5.4 15.5504 5.39063 15.6629C5.37813 15.7754 5.35625 15.866 5.34375 15.866C5.32813 15.866 5.30938 15.9504 5.29688 16.0535C5.28438 16.1566 5.26563 16.2472 5.25 16.2566C5.2375 16.266 5.21563 16.3629 5.20313 16.4754C5.19375 16.5879 5.17188 16.6785 5.15625 16.6785C5.14375 16.6785 5.12188 16.7691 5.10938 16.8816C5.1 16.9941 5.07813 17.091 5.0625 17.1004C5.04688 17.1097 5.025 17.2066 5.01563 17.3191C5.00313 17.4316 4.98125 17.5222 4.96875 17.5222C4.95313 17.5222 4.93125 17.6129 4.92188 17.7254C4.90938 17.8379 4.8875 17.9285 4.875 17.9285C4.85938 17.9285 4.8375 18.0191 4.82813 18.1316C4.81563 18.2441 4.79375 18.341 4.78125 18.3504C4.76563 18.3597 4.74688 18.4504 4.73438 18.5535C4.72188 18.6566 4.70313 18.741 4.6875 18.741C4.675 18.741 4.65313 18.8316 4.64063 18.9441C4.63125 19.0566 4.60938 19.1535 4.59375 19.1629C4.57813 19.1722 4.55625 19.2691 4.54688 19.3816C4.53438 19.4941 4.5125 19.5847 4.5 19.5847C4.48438 19.5847 4.4625 19.6754 4.45313 19.7879C4.44063 19.9004 4.41875 19.991 4.40625 19.991C4.39063 19.991 4.36875 20.0816 4.35938 20.1941C4.34688 20.3066 4.325 20.4035 4.3125 20.4129C4.29688 20.4222 4.27813 20.5129 4.26563 20.616C4.25313 20.7191 4.23438 20.8035 4.21875 20.8035C4.20625 20.8035 4.18438 20.891 4.175 20.9972C4.1625 21.1066 4.13438 21.2129 4.11563 21.2379C4.09063 21.266 4.07813 21.4254 4.07813 21.7066C4.07813 22.0504 4.09063 22.1504 4.13438 22.2254C4.1625 22.2754 4.1875 22.3379 4.1875 22.3566C4.1875 22.3785 4.20313 22.3972 4.21875 22.3972C4.2375 22.3972 4.25 22.4129 4.25 22.4347C4.25 22.4691 4.27188 22.4972 4.4125 22.6472C4.54063 22.7816 4.65313 22.8629 4.73438 22.8847C4.77813 22.8941 4.8125 22.916 4.8125 22.9316C4.8125 22.9472 4.86875 22.9691 4.9375 22.9785C5.00625 22.991 5.07188 23.0129 5.08125 23.0254C5.10313 23.0629 5.65625 23.0629 5.65625 23.0254C5.65625 23.0129 5.71563 22.991 5.78438 22.9816C5.85625 22.9722 5.925 22.9504 5.93438 22.9347C5.94375 22.9191 5.9875 22.8941 6.03125 22.8816C6.075 22.8691 6.11563 22.8504 6.125 22.8379C6.15 22.8066 6.25938 22.741 6.35313 22.7004C6.4 22.6816 6.4375 22.6535 6.4375 22.641C6.4375 22.6285 6.45625 22.616 6.48125 22.616C6.50625 22.616 6.54688 22.5972 6.56875 22.5754C6.59063 22.5535 6.65 22.516 6.7 22.491C6.87813 22.4004 6.90625 22.3816 6.90625 22.3597C6.90625 22.3441 6.925 22.3347 6.95 22.3347C6.975 22.3347 7.01563 22.316 7.0375 22.2941C7.05938 22.2722 7.11875 22.2347 7.16875 22.2097C7.34688 22.1191 7.375 22.1004 7.375 22.0785C7.375 22.0629 7.39375 22.0535 7.41875 22.0535C7.44375 22.0535 7.48438 22.0347 7.50625 22.0129C7.52813 21.991 7.5875 21.9535 7.6375 21.9285C7.81563 21.8379 7.84375 21.8191 7.84375 21.7972C7.84375 21.7816 7.8625 21.7722 7.8875 21.7722C7.9125 21.7722 7.95313 21.7535 7.975 21.7316C7.99688 21.7097 8.05625 21.6722 8.10625 21.6472C8.28438 21.5566 8.3125 21.5379 8.3125 21.516C8.3125 21.5004 8.33125 21.491 8.35625 21.491C8.38125 21.491 8.42188 21.4722 8.44375 21.4504C8.46563 21.4285 8.525 21.391 8.575 21.366C8.75313 21.2754 8.78125 21.2566 8.78125 21.2347C8.78125 21.2191 8.8 21.2097 8.825 21.2097C8.85 21.2097 8.89063 21.191 8.9125 21.1691C8.93438 21.1472 8.99375 21.1097 9.04375 21.0847C9.22188 20.9941 9.25 20.9754 9.25 20.9535C9.25 20.9379 9.26875 20.9285 9.29375 20.9285C9.31875 20.9285 9.35938 20.9097 9.38125 20.891C9.40313 20.8691 9.49063 20.816 9.57188 20.7722C9.65313 20.7316 9.71875 20.6847 9.71875 20.6722C9.71875 20.6566 9.73438 20.6472 9.75313 20.6472C9.7875 20.6472 10.1531 20.4379 10.1875 20.4004C10.1969 20.391 10.2719 20.3472 10.3594 20.3035C10.4438 20.2597 10.5313 20.2097 10.5531 20.1941C10.6469 20.1191 10.6813 20.0972 10.8281 20.0222C10.9125 19.9785 11 19.9285 11.0219 19.9129C11.1156 19.8379 11.15 19.816 11.2969 19.741C11.3844 19.6972 11.4594 19.6535 11.4625 19.6379C11.4688 19.6254 11.4938 19.616 11.5188 19.616C11.5438 19.616 11.5719 19.5972 11.5813 19.5722C11.5906 19.5472 11.6406 19.516 11.6906 19.5066C11.7406 19.4941 11.7813 19.4722 11.7813 19.4566C11.7813 19.441 11.8156 19.4222 11.8594 19.4097C11.9031 19.4004 11.9375 19.3785 11.9375 19.3629C11.9375 19.3285 12.0531 19.3254 12.0688 19.3566C12.0719 19.3722 12.1469 19.416 12.2344 19.4597C12.3813 19.5347 12.4156 19.5566 12.5094 19.6316C12.5313 19.6472 12.6188 19.6972 12.7031 19.741C12.7906 19.7847 12.8656 19.8285 12.875 19.8379C12.9094 19.8754 13.275 20.0847 13.3094 20.0847C13.3281 20.0847 13.3438 20.0941 13.3438 20.1097C13.3438 20.1316 13.3719 20.1504 13.55 20.241C13.6 20.266 13.6594 20.3035 13.6813 20.3254C13.7031 20.3472 13.7438 20.366 13.7688 20.366C13.7938 20.366 13.8125 20.3754 13.8125 20.391C13.8125 20.4129 13.8406 20.4316 14.0188 20.5222C14.0688 20.5472 14.1281 20.5847 14.15 20.6066C14.1719 20.6285 14.2125 20.6472 14.2375 20.6472C14.2625 20.6472 14.2813 20.6566 14.2813 20.6722C14.2813 20.6941 14.3094 20.7129 14.4875 20.8035C14.5375 20.8285 14.5969 20.866 14.6188 20.8879C14.6406 20.9097 14.6813 20.9285 14.7063 20.9285C14.7313 20.9285 14.75 20.9379 14.75 20.9535C14.75 20.9754 14.7781 20.9941 14.9563 21.0847C15.0063 21.1097 15.0656 21.1472 15.0875 21.1691C15.1094 21.191 15.15 21.2097 15.175 21.2097C15.2 21.2097 15.2188 21.2191 15.2188 21.2347C15.2188 21.2566 15.2469 21.2754 15.425 21.366C15.475 21.391 15.5344 21.4285 15.5563 21.4504C15.5781 21.4722 15.6188 21.491 15.6438 21.491C15.6688 21.491 15.6875 21.5004 15.6875 21.516C15.6875 21.5379 15.7156 21.5566 15.8938 21.6472C15.9438 21.6722 16.0031 21.7097 16.025 21.7316C16.0469 21.7535 16.0875 21.7722 16.1125 21.7722C16.1375 21.7722 16.1563 21.7816 16.1563 21.7972C16.1563 21.8191 16.1844 21.8379 16.3625 21.9285C16.4125 21.9535 16.4719 21.991 16.4938 22.0129C16.5156 22.0347 16.5563 22.0535 16.5813 22.0535C16.6063 22.0535 16.625 22.066 16.625 22.0785C16.625 22.091 16.6625 22.1191 16.7125 22.141C16.8688 22.2129 16.9375 22.2566 16.9375 22.2785C16.9375 22.2941 16.9563 22.3035 16.9813 22.3035C17.0063 22.3035 17.0469 22.3222 17.0688 22.3441C17.0906 22.366 17.15 22.4035 17.2 22.4285C17.3781 22.5191 17.4063 22.5379 17.4063 22.5597C17.4063 22.5754 17.425 22.5847 17.45 22.5847C17.475 22.5847 17.5156 22.6035 17.5375 22.6254C17.5594 22.6472 17.6125 22.6816 17.6563 22.7035C17.7531 22.7504 17.8531 22.8129 17.875 22.8379C17.8844 22.8504 17.925 22.8691 17.9688 22.8816C18.0125 22.8941 18.0563 22.9191 18.0656 22.9347C18.075 22.9504 18.1438 22.9722 18.2156 22.9816C18.2844 22.991 18.3438 23.0129 18.3438 23.0254C18.3438 23.041 18.4719 23.0535 18.625 23.0535C18.7813 23.0535 18.9063 23.041 18.9063 23.0254C18.9063 23.0129 18.9656 22.991 19.0344 22.9816C19.1063 22.9722 19.175 22.9504 19.1844 22.9347C19.1938 22.9191 19.2375 22.8941 19.2781 22.8816C19.3781 22.8504 19.5 22.7472 19.7063 22.5191C19.7313 22.491 19.75 22.4535 19.75 22.4347C19.75 22.4129 19.7656 22.3972 19.7813 22.3972C19.8 22.3972 19.8125 22.3785 19.8125 22.3566C19.8125 22.3379 19.8375 22.2754 19.8656 22.2254C19.9094 22.1504 19.9219 22.0504 19.9219 21.7066C19.9219 21.4254 19.9094 21.266 19.8844 21.2379C19.8656 21.2129 19.8375 21.1066 19.825 20.9972C19.8156 20.891 19.7938 20.8035 19.7813 20.8035C19.7656 20.8035 19.7438 20.7129 19.7344 20.6004C19.7219 20.4879 19.7 20.391 19.6875 20.3816C19.6719 20.3722 19.6531 20.2816 19.6406 20.1785C19.6281 20.0754 19.6063 19.9847 19.5938 19.9754C19.5813 19.966 19.5594 19.8754 19.5469 19.7722C19.5344 19.6691 19.5125 19.5847 19.5 19.5847C19.4875 19.5847 19.4656 19.4847 19.4531 19.366C19.4406 19.2441 19.4188 19.1472 19.4063 19.1472C19.3906 19.1472 19.3688 19.0566 19.3594 18.9441C19.3469 18.8316 19.325 18.741 19.3125 18.741C19.2969 18.741 19.275 18.6504 19.2656 18.5379C19.2531 18.4254 19.2313 18.3285 19.2188 18.3191C19.2031 18.3097 19.1844 18.2191 19.1719 18.116C19.1594 18.0129 19.1375 17.9222 19.125 17.9129C19.1125 17.9035 19.0906 17.8129 19.0781 17.7097C19.0656 17.6066 19.0469 17.5222 19.0313 17.5222C19.0188 17.5222 18.9969 17.4222 18.9875 17.3035C18.975 17.1816 18.9531 17.0847 18.9406 17.0847C18.925 17.0847 18.9031 16.9941 18.8906 16.8816C18.8813 16.7691 18.8594 16.6785 18.8438 16.6785C18.8313 16.6785 18.8094 16.591 18.7969 16.4816C18.7844 16.3754 18.7625 16.2722 18.75 16.2566C18.7375 16.2379 18.7156 16.1472 18.7031 16.0535C18.6906 15.9597 18.6688 15.866 18.6563 15.8504C18.6438 15.8316 18.6219 15.741 18.6094 15.6472C18.5969 15.5535 18.575 15.4597 18.5625 15.4441C18.55 15.4254 18.5281 15.3285 18.5156 15.2254C18.5031 15.1222 18.4844 15.0316 18.4688 15.0222C18.4563 15.0129 18.4375 14.9285 18.425 14.8347L18.4031 14.6629L18.5656 14.5222C18.6531 14.4441 18.8031 14.3066 18.8969 14.216C18.9906 14.1285 19.0781 14.0535 19.0906 14.0535C19.1031 14.0535 19.1938 13.9754 19.2906 13.8816C19.3875 13.7879 19.475 13.7097 19.4875 13.7097C19.5 13.7097 19.5781 13.641 19.6625 13.5535C19.7469 13.4691 19.825 13.3972 19.8375 13.3972C19.85 13.3972 19.9531 13.3129 20.0625 13.2097C20.3531 12.941 20.5344 12.7816 20.6344 12.7066C20.6844 12.6691 20.7844 12.5816 20.8594 12.5097C21.1344 12.2535 21.3656 12.0472 21.4094 12.0222C21.4531 11.9941 21.625 11.8441 21.8844 11.6004C21.9594 11.5316 22.0875 11.4191 22.1719 11.3504C22.3438 11.2129 22.4406 11.1285 22.6375 10.941C22.7156 10.8691 22.8156 10.7816 22.8656 10.7441C23.2656 10.4316 23.8156 9.87537 23.9063 9.69412C23.9719 9.55975 23.9844 9.48475 23.9938 9.17225C24.0063 8.8035 23.9688 8.51912 23.8969 8.44412C23.8781 8.42225 23.8375 8.37225 23.8125 8.33475C23.7219 8.19725 23.5875 8.0535 23.5469 8.0535C23.525 8.0535 23.5 8.03162 23.4875 8.00662C23.4781 7.98162 23.45 7.95975 23.4219 7.95975C23.3969 7.95975 23.375 7.94725 23.375 7.93162C23.375 7.916 23.3281 7.891 23.275 7.88162C23.2188 7.86912 23.1563 7.84725 23.1344 7.8285C23.1156 7.81287 22.975 7.791 22.8219 7.78162C22.6719 7.77225 22.5344 7.7535 22.5156 7.741C22.5 7.7285 22.2625 7.70662 21.9906 7.69412C21.7219 7.68162 21.4938 7.65975 21.4844 7.64725C21.475 7.63475 21.2438 7.61287 20.9688 7.60037C20.6938 7.58787 20.4625 7.566 20.4531 7.5535C20.4438 7.541 20.2125 7.51912 19.9375 7.50662C19.6625 7.49412 19.4313 7.47225 19.4219 7.45975C19.4125 7.44725 19.1813 7.42537 18.9063 7.41287C18.6313 7.40037 18.4 7.3785 18.3906 7.366C18.3813 7.3535 18.15 7.33162 17.875 7.31912C17.6 7.30662 17.3688 7.28475 17.3594 7.27225C17.35 7.25975 17.1125 7.23787 16.8281 7.22537C16.5438 7.21287 16.3031 7.191 16.2938 7.17537C16.2844 7.15975 16.2125 7.14725 16.1313 7.14725C15.9594 7.14725 15.9219 7.1285 15.8938 7.02225C15.8813 6.9785 15.8594 6.916 15.8438 6.88162C15.7156 6.59412 15.6875 6.52225 15.6875 6.49412C15.6875 6.47537 15.675 6.45975 15.6563 6.45975C15.6406 6.45975 15.625 6.43787 15.625 6.40975C15.625 6.366 15.5875 6.26912 15.45 5.96912C15.425 5.916 15.4063 5.85662 15.4063 5.83787C15.4063 5.81912 15.3938 5.8035 15.375 5.8035C15.3594 5.8035 15.3438 5.78162 15.3438 5.7535C15.3438 5.70975 15.3063 5.61287 15.1688 5.31287C15.1438 5.25975 15.125 5.20037 15.125 5.18162C15.125 5.16287 15.1125 5.14725 15.0969 5.14725C15.0813 5.14725 15.0594 5.091 15.0469 5.02225C15.0344 4.9535 15.0125 4.89725 14.9969 4.89725C14.9813 4.89725 14.9688 4.8785 14.9688 4.85662C14.9656 4.83787 14.9406 4.76287 14.9063 4.69412C14.8719 4.62537 14.8469 4.55037 14.8438 4.5285C14.8438 4.50975 14.8313 4.491 14.8156 4.491C14.8 4.491 14.7781 4.43475 14.7656 4.366C14.7531 4.29725 14.7313 4.241 14.7188 4.241C14.7031 4.241 14.6813 4.191 14.6688 4.13162C14.6594 4.07225 14.6375 4.02225 14.625 4.02225C14.6094 4.02225 14.5906 3.9785 14.5781 3.9285C14.5656 3.87537 14.5469 3.83475 14.5313 3.83475C14.5188 3.83475 14.5 3.7785 14.4875 3.70975C14.4781 3.641 14.4563 3.58475 14.4375 3.58475C14.4219 3.58475 14.4 3.53475 14.3875 3.47537C14.3781 3.416 14.3563 3.366 14.3438 3.366C14.3281 3.366 14.3094 3.32225 14.2969 3.27225C14.2844 3.21912 14.2656 3.1785 14.25 3.1785C14.2375 3.1785 14.2188 3.12225 14.2063 3.0535C14.1969 2.98475 14.175 2.9285 14.1563 2.9285C14.1406 2.9285 14.1188 2.8785 14.1063 2.81912C14.0969 2.75975 14.075 2.70975 14.0594 2.70975C14.0438 2.70975 14.0313 2.691 14.0313 2.66912C14.0313 2.65037 14.0125 2.59412 13.9875 2.54725C13.9625 2.50037 13.9344 2.42225 13.9219 2.36912C13.9094 2.316 13.8875 2.27225 13.875 2.27225C13.8594 2.27225 13.8375 2.22225 13.825 2.16287C13.8156 2.1035 13.7938 2.0535 13.7781 2.0535C13.7625 2.0535 13.75 2.03475 13.75 2.01287C13.75 1.99412 13.7313 1.93787 13.7063 1.891C13.6813 1.84412 13.6531 1.766 13.6406 1.71287C13.6281 1.65975 13.6063 1.616 13.5938 1.616C13.5781 1.616 13.5563 1.566 13.5438 1.50662C13.5344 1.44725 13.5125 1.39725 13.4969 1.39725C13.4813 1.39725 13.4688 1.3785 13.4688 1.35662C13.4688 1.33787 13.45 1.28162 13.425 1.23475C13.4 1.18787 13.3719 1.10975 13.3594 1.05662C13.3469 1.0035 13.3281 0.959749 13.3125 0.959749C13.3 0.959749 13.2781 0.909749 13.2688 0.850374C13.2563 0.790999 13.2344 0.740999 13.2219 0.740999C13.2063 0.740999 13.1844 0.703499 13.1719 0.656624C13.1625 0.609749 13.1406 0.562874 13.1281 0.553499C13.1188 0.544124 13.0625 0.478499 13.0031 0.403499C12.9469 0.331624 12.8875 0.272249 12.875 0.272249C12.8594 0.272249 12.8094 0.237874 12.7625 0.194124C12.7156 0.150374 12.6406 0.106624 12.5969 0.0941237C12.5531 0.0847487 12.5063 0.0597487 12.4938 0.0409987C12.4719 0.00662369 11.7469 -0.0152513 11.5875 0.0128737ZM12.0469 2.08787C12.0594 2.141 12.0875 2.21912 12.1125 2.266C12.1375 2.31287 12.1563 2.36912 12.1563 2.38787C12.1563 2.40975 12.1688 2.4285 12.1844 2.4285C12.2 2.4285 12.2219 2.4785 12.2313 2.53787C12.2438 2.59725 12.2656 2.64725 12.2813 2.64725C12.2938 2.64725 12.3156 2.691 12.3281 2.74412C12.3406 2.79725 12.3688 2.87537 12.3938 2.92225C12.4188 2.96912 12.4375 3.02537 12.4375 3.04412C12.4375 3.066 12.45 3.08475 12.4656 3.08475C12.4813 3.08475 12.5031 3.13475 12.5125 3.19412C12.525 3.2535 12.5469 3.3035 12.5625 3.3035C12.575 3.3035 12.6 3.34725 12.6094 3.4035C12.6219 3.45975 12.6438 3.52537 12.6594 3.5535C12.7125 3.64725 12.8125 3.89412 12.8125 3.92537C12.8125 3.94412 12.8281 3.95975 12.8438 3.95975C12.8625 3.95975 12.875 3.98162 12.875 4.00975C12.875 4.0535 12.9125 4.15037 13.05 4.45037C13.075 4.5035 13.0938 4.56287 13.0938 4.58162C13.0938 4.60037 13.1063 4.616 13.1219 4.616C13.1375 4.616 13.1594 4.67225 13.1719 4.741C13.1844 4.80975 13.2063 4.866 13.2219 4.866C13.2375 4.866 13.25 4.88475 13.25 4.9035C13.2531 4.92537 13.2781 5.00037 13.3125 5.06912C13.3469 5.13787 13.3719 5.21287 13.375 5.23162C13.375 5.2535 13.3875 5.27225 13.4031 5.27225C13.4188 5.27225 13.4406 5.3285 13.4531 5.39725C13.4656 5.466 13.4875 5.52225 13.5 5.52225C13.5156 5.52225 13.5375 5.57225 13.55 5.63162C13.5594 5.691 13.5813 5.741 13.5938 5.741C13.6094 5.741 13.6281 5.78162 13.6406 5.83475C13.6531 5.88475 13.6719 5.9285 13.6875 5.9285C13.7 5.9285 13.7188 5.98475 13.7313 6.0535C13.7406 6.12225 13.7625 6.1785 13.7813 6.1785C13.7969 6.1785 13.8188 6.2285 13.8313 6.28787C13.8406 6.34725 13.8625 6.39725 13.875 6.39725C13.8906 6.39725 13.9094 6.43787 13.9219 6.491C13.9344 6.541 13.9531 6.58475 13.9688 6.58475C13.9813 6.58475 14 6.641 14.0125 6.70975C14.0219 6.7785 14.0438 6.83475 14.0625 6.83475C14.0781 6.83475 14.1 6.88475 14.1125 6.94412C14.1219 7.0035 14.1438 7.0535 14.1594 7.0535C14.175 7.0535 14.1875 7.07225 14.1875 7.091C14.1875 7.11287 14.2063 7.16912 14.2313 7.216C14.2563 7.26287 14.2844 7.341 14.2969 7.39412C14.3094 7.44725 14.3313 7.491 14.3438 7.491C14.3594 7.491 14.3813 7.541 14.3938 7.60037C14.4031 7.65975 14.425 7.70975 14.4406 7.70975C14.4563 7.70975 14.4688 7.7285 14.4688 7.75037C14.4688 7.84412 14.6906 8.216 14.8344 8.3535C14.9938 8.51287 15.225 8.64725 15.3375 8.64725C15.3719 8.64725 15.4063 8.66287 15.4125 8.6785C15.4188 8.69725 15.5875 8.71912 15.7969 8.73162C16.0031 8.741 16.1875 8.75975 16.2031 8.77225C16.2219 8.78787 16.4531 8.80662 16.7188 8.81912C16.9844 8.83162 17.2188 8.8535 17.2344 8.866C17.2531 8.88162 17.4844 8.90037 17.75 8.91287C18.0156 8.92537 18.25 8.94725 18.2656 8.95975C18.2844 8.97225 18.5188 8.99412 18.7906 9.00662C19.0594 9.01912 19.2875 9.041 19.2969 9.0535C19.3063 9.066 19.5344 9.08787 19.8031 9.10037C20.075 9.11287 20.3125 9.13475 20.3281 9.14725C20.3469 9.15975 20.5781 9.18162 20.8438 9.19412C21.1094 9.20662 21.3438 9.2285 21.3594 9.241C21.3781 9.2535 21.5219 9.27225 21.6781 9.2785C21.8375 9.28475 21.9781 9.30037 21.9906 9.31287C22.0031 9.32537 21.95 9.391 21.8719 9.45975C21.7969 9.5285 21.6563 9.6535 21.5625 9.73787C21.4688 9.82225 21.3406 9.93162 21.2813 9.98162C21.1531 10.0847 21.0469 10.1816 20.8656 10.3504C20.7906 10.4191 20.6594 10.5316 20.575 10.6004C20.4906 10.6691 20.3875 10.7629 20.3438 10.8097C20.3031 10.8597 20.2563 10.8972 20.2406 10.8972C20.225 10.8972 20.1594 10.9504 20.0969 11.0129C20.0344 11.0785 19.9406 11.1629 19.8906 11.2035C19.7656 11.3004 19.4688 11.566 19.2813 11.7441C19.1969 11.8254 19.1156 11.8972 19.0969 11.9004C19.0625 11.9129 18.7625 12.1785 18.5313 12.4004C18.4469 12.4816 18.3656 12.5535 18.3469 12.5566C18.3125 12.5691 18.0281 12.8222 17.7594 13.0754C17.6656 13.166 17.575 13.241 17.5625 13.241C17.5125 13.241 16.9375 13.8441 16.9188 13.916C16.9094 13.9566 16.8875 13.991 16.875 13.991C16.8594 13.991 16.8375 14.0535 16.825 14.1316C16.8156 14.2097 16.7938 14.2816 16.7781 14.291C16.7406 14.3129 16.7406 14.8347 16.7781 14.8347C16.7938 14.8347 16.8156 14.9254 16.8281 15.0379C16.8375 15.1504 16.8594 15.2472 16.875 15.2566C16.8906 15.266 16.9125 15.3629 16.9219 15.4754C16.9344 15.5879 16.9563 15.6785 16.9688 15.6785C16.9844 15.6785 17.0063 15.7691 17.0156 15.8816C17.0281 15.9941 17.05 16.091 17.0625 16.1004C17.0781 16.1097 17.0969 16.2004 17.1094 16.3035C17.1219 16.4066 17.1406 16.491 17.1563 16.491C17.1688 16.491 17.1906 16.5816 17.2031 16.6941C17.2125 16.8066 17.2344 16.8972 17.25 16.8972C17.2625 16.8972 17.2844 16.9879 17.2969 17.1004C17.3063 17.2129 17.3281 17.3097 17.3438 17.3191C17.3594 17.3285 17.3813 17.4254 17.3906 17.5379C17.4031 17.6504 17.425 17.741 17.4375 17.741C17.4531 17.741 17.475 17.8316 17.4844 17.9441C17.4969 18.0566 17.5188 18.1535 17.5313 18.1629C17.5469 18.1722 17.5656 18.2629 17.5781 18.366C17.5906 18.4691 17.6125 18.5597 17.625 18.5691C17.6375 18.5785 17.6594 18.6691 17.6719 18.7722C17.6844 18.8754 17.7031 18.9597 17.7188 18.9597C17.7313 18.9597 17.7531 19.0566 17.7625 19.1785C17.775 19.2972 17.7969 19.3972 17.8125 19.3972C17.8281 19.3972 17.85 19.4879 17.8594 19.6004C17.8719 19.7129 17.8938 19.8035 17.9063 19.8035C17.9219 19.8035 17.9438 19.8941 17.9531 20.0066C17.9656 20.1191 17.9875 20.216 18 20.2254C18.0156 20.2347 18.0344 20.3254 18.0469 20.4285C18.0594 20.5316 18.0813 20.6222 18.0938 20.6316C18.1063 20.641 18.1281 20.7316 18.1406 20.8347C18.1531 20.9379 18.175 21.0222 18.1906 21.0222C18.2063 21.0222 18.2188 21.0441 18.2188 21.0691C18.2188 21.1285 18.1438 21.1285 18.0875 21.0722C18.0625 21.0504 18.0094 21.0191 17.9688 21.0066C17.9281 20.9941 17.875 20.966 17.8531 20.9472C17.8281 20.9285 17.7938 20.8972 17.7719 20.8816C17.75 20.8629 17.6625 20.816 17.5781 20.7722C17.4313 20.6972 17.3969 20.6754 17.3031 20.6004C17.2813 20.5816 17.1938 20.5347 17.1094 20.491C16.9625 20.416 16.9281 20.3941 16.8344 20.3191C16.8125 20.3004 16.725 20.2535 16.6406 20.2097C16.4938 20.1347 16.4594 20.1129 16.3656 20.0379C16.3438 20.0191 16.2563 19.9722 16.1719 19.9285C16.0875 19.8847 16 19.8347 15.9813 19.8191C15.9625 19.8004 15.8938 19.7597 15.825 19.7254C15.7594 19.691 15.6844 19.6441 15.6625 19.6222C15.6406 19.6035 15.6 19.5847 15.575 19.5847C15.55 19.5847 15.5313 19.5754 15.5313 19.5597C15.5313 19.5379 15.5031 19.5191 15.325 19.4285C15.275 19.4035 15.2156 19.366 15.1938 19.3441C15.1719 19.3222 15.1313 19.3035 15.1063 19.3035C15.0813 19.3035 15.0625 19.2941 15.0625 19.2785C15.0625 19.2566 15.0344 19.2379 14.8563 19.1472C14.8063 19.1222 14.7469 19.0847 14.725 19.0629C14.7031 19.041 14.6625 19.0222 14.6375 19.0222C14.6125 19.0222 14.5938 19.0129 14.5938 18.9972C14.5938 18.9754 14.5656 18.9566 14.3875 18.866C14.3375 18.841 14.2781 18.8035 14.2563 18.7816C14.2344 18.7597 14.1938 18.741 14.1688 18.741C14.1438 18.741 14.125 18.7316 14.125 18.716C14.125 18.6941 14.0969 18.6754 13.9188 18.5847C13.8688 18.5597 13.8094 18.5222 13.7875 18.5004C13.7656 18.4785 13.725 18.4597 13.7 18.4597C13.675 18.4597 13.6563 18.4504 13.6563 18.4347C13.6563 18.4129 13.6281 18.3941 13.45 18.3035C13.4 18.2785 13.3406 18.241 13.3188 18.2191C13.2969 18.1972 13.2563 18.1785 13.2313 18.1785C13.2063 18.1785 13.1875 18.1691 13.1875 18.1535C13.1875 18.1316 13.1594 18.1129 12.9813 18.0222C12.9313 17.9972 12.8719 17.9597 12.85 17.9379C12.8281 17.916 12.7875 17.8972 12.7625 17.8972C12.7375 17.8972 12.7188 17.8847 12.7188 17.8691C12.7188 17.8535 12.6813 17.8316 12.6344 17.8191C12.5875 17.8097 12.5375 17.7847 12.5281 17.7691C12.5188 17.7504 12.4313 17.7285 12.3344 17.7191C12.2344 17.7097 12.1563 17.6879 12.1563 17.6754C12.1563 17.6597 12.0875 17.6472 12 17.6472C11.9156 17.6472 11.8438 17.6597 11.8438 17.6754C11.8438 17.6879 11.7656 17.7097 11.6656 17.7191C11.5688 17.7285 11.4813 17.7504 11.4719 17.7691C11.4625 17.7847 11.4125 17.8097 11.3656 17.8191C11.3188 17.8316 11.2813 17.8535 11.2813 17.8691C11.2813 17.8847 11.2625 17.8972 11.2375 17.8972C11.2125 17.8972 11.1719 17.916 11.15 17.9379C11.1281 17.9597 11.0688 17.9972 11.0188 18.0222C10.8406 18.1129 10.8125 18.1316 10.8125 18.1535C10.8125 18.1691 10.7938 18.1785 10.7688 18.1785C10.7438 18.1785 10.7031 18.1972 10.6813 18.2191C10.6594 18.241 10.6 18.2785 10.55 18.3035C10.3719 18.3941 10.3438 18.4129 10.3438 18.4347C10.3438 18.4504 10.325 18.4597 10.3 18.4597C10.275 18.4597 10.2344 18.4785 10.2125 18.5004C10.1906 18.5222 10.1313 18.5597 10.0813 18.5847C9.90313 18.6754 9.875 18.6941 9.875 18.716C9.875 18.7316 9.85625 18.741 9.83125 18.741C9.80625 18.741 9.76563 18.7597 9.74375 18.7816C9.72188 18.8035 9.6625 18.841 9.6125 18.866C9.43438 18.9566 9.40625 18.9754 9.40625 18.9972C9.40625 19.0129 9.3875 19.0222 9.3625 19.0222C9.3375 19.0222 9.29688 19.041 9.275 19.0629C9.25313 19.0847 9.19375 19.1222 9.14375 19.1472C8.96563 19.2379 8.9375 19.2566 8.9375 19.2785C8.9375 19.2941 8.91875 19.3035 8.89375 19.3035C8.86875 19.3035 8.82813 19.3222 8.80625 19.3441C8.78438 19.366 8.725 19.4035 8.675 19.4285C8.49688 19.5191 8.46875 19.5379 8.46875 19.5597C8.46875 19.5754 8.45 19.5847 8.425 19.5847C8.4 19.5847 8.35938 19.6035 8.3375 19.6254C8.31563 19.6472 8.25625 19.6847 8.20625 19.7097C8.02813 19.8004 8 19.8191 8 19.841C8 19.8566 7.98125 19.866 7.95625 19.866C7.93125 19.866 7.89063 19.8847 7.86875 19.9035C7.84688 19.9254 7.75938 19.9785 7.67813 20.0222C7.59688 20.0629 7.53125 20.1097 7.53125 20.1222C7.53125 20.1379 7.51563 20.1472 7.49688 20.1472C7.4625 20.1472 7.09688 20.3566 7.0625 20.3941C7.05313 20.4035 6.97813 20.4472 6.89063 20.491C6.74375 20.566 6.70938 20.5879 6.61563 20.6629C6.59375 20.6785 6.50625 20.7285 6.42188 20.7722C6.27813 20.8441 6.24688 20.866 6.14688 20.9441C6.07813 20.9972 5.85 21.116 5.81563 21.116C5.79688 21.116 5.78125 21.0941 5.78125 21.0691C5.78125 21.0441 5.79375 21.0222 5.80938 21.0222C5.825 21.0222 5.84688 20.9379 5.85938 20.8347C5.87188 20.7316 5.89375 20.641 5.90625 20.6316C5.91875 20.6222 5.94063 20.5316 5.95313 20.4285C5.96563 20.3254 5.98438 20.2347 6 20.2254C6.0125 20.216 6.03438 20.1191 6.04688 20.0066C6.05625 19.8941 6.07813 19.8035 6.09375 19.8035C6.10625 19.8035 6.12813 19.7129 6.14063 19.6004C6.15 19.4879 6.17188 19.391 6.1875 19.3816C6.20313 19.3722 6.225 19.2754 6.23438 19.1629C6.24688 19.0504 6.26875 18.9597 6.28125 18.9597C6.29688 18.9597 6.31875 18.8691 6.32813 18.7566C6.34063 18.6441 6.3625 18.5535 6.375 18.5535C6.39063 18.5535 6.40938 18.4691 6.42188 18.366C6.43438 18.2629 6.45313 18.1722 6.46875 18.1629C6.48125 18.1535 6.50313 18.0566 6.51563 17.9441C6.525 17.8316 6.54688 17.741 6.5625 17.741C6.575 17.741 6.59688 17.6504 6.60938 17.5379C6.61875 17.4254 6.64063 17.3285 6.65625 17.3191C6.67188 17.3097 6.69375 17.2129 6.70313 17.1004C6.71563 16.9879 6.7375 16.8972 6.75 16.8972C6.76563 16.8972 6.7875 16.8066 6.79688 16.6941C6.80938 16.5816 6.83125 16.491 6.84375 16.491C6.85938 16.491 6.88125 16.4004 6.89063 16.2879C6.90313 16.1754 6.925 16.0785 6.9375 16.0691C6.95313 16.0597 6.97188 15.9691 6.98438 15.866C6.99688 15.7629 7.01563 15.6785 7.03125 15.6785C7.04375 15.6785 7.06563 15.5879 7.07813 15.4754C7.0875 15.3629 7.10938 15.266 7.125 15.2566C7.14063 15.2472 7.1625 15.1504 7.17188 15.0379C7.18438 14.9254 7.20625 14.8254 7.22188 14.816C7.25938 14.7941 7.25938 14.3129 7.22188 14.291C7.20625 14.2816 7.18438 14.2097 7.175 14.1316C7.1625 14.0535 7.14063 13.991 7.125 13.991C7.1125 13.991 7.09063 13.9535 7.08125 13.9097C7.0625 13.8347 6.45938 13.2097 6.40313 13.2097C6.39063 13.2097 6.30938 13.1441 6.22188 13.0597C5.9875 12.8347 5.6875 12.5691 5.65313 12.5566C5.63438 12.5535 5.55313 12.4816 5.46875 12.4004C5.27813 12.216 4.94688 11.9222 4.9 11.8941C4.8625 11.8722 4.65 11.6785 4.3375 11.3879C4.25 11.3066 4.16875 11.241 4.15938 11.241C4.14688 11.241 4.05 11.1597 3.94375 11.0597C3.55 10.6941 3.38438 10.5472 3.34063 10.5222C3.29688 10.4941 3.1125 10.3316 2.85938 10.0972C2.78438 10.0254 2.68438 9.93787 2.63438 9.90037C2.5875 9.866 2.48438 9.7785 2.40625 9.70975C2.32813 9.641 2.20313 9.5285 2.12813 9.45975C2.05 9.391 1.99688 9.32537 2.00938 9.31287C2.02188 9.30037 2.1625 9.28475 2.32188 9.2785C2.47813 9.27225 2.625 9.2535 2.64063 9.241C2.65938 9.2285 2.89375 9.20662 3.16563 9.19412C3.43438 9.18162 3.6625 9.15975 3.67188 9.14725C3.68125 9.13475 3.9125 9.11287 4.1875 9.10037C4.4625 9.08787 4.69375 9.066 4.70313 9.0535C4.7125 9.041 4.95 9.01912 5.23438 9.00662C5.51875 8.99412 5.75 8.97225 5.75 8.95975C5.75 8.94725 5.98125 8.92537 6.26563 8.91287C6.55 8.90037 6.78125 8.8785 6.78125 8.866C6.78125 8.8535 7.0125 8.83162 7.29688 8.81912C7.58125 8.80662 7.8125 8.78475 7.8125 8.77225C7.8125 8.75975 7.98438 8.741 8.19688 8.7285C8.40625 8.71912 8.58438 8.69412 8.5875 8.6785C8.59375 8.65975 8.62813 8.64725 8.6625 8.64725C8.77813 8.64725 9.00938 8.50975 9.17813 8.33787C9.26875 8.24725 9.34375 8.1535 9.34375 8.1285C9.34375 8.1035 9.35625 8.08475 9.37188 8.08475C9.3875 8.08475 9.40938 8.041 9.42188 7.991C9.43438 7.93787 9.45313 7.89725 9.46875 7.89725C9.48438 7.89725 9.50313 7.8535 9.51563 7.8035C9.52813 7.75037 9.54688 7.70975 9.5625 7.70975C9.575 7.70975 9.59688 7.65975 9.60625 7.60037C9.61875 7.541 9.64063 7.491 9.65625 7.491C9.675 7.491 9.69688 7.43475 9.70625 7.366C9.71875 7.29725 9.7375 7.241 9.75 7.241C9.76563 7.241 9.78438 7.19725 9.79688 7.14725C9.80938 7.09412 9.82813 7.0535 9.84375 7.0535C9.85625 7.0535 9.87813 7.0035 9.8875 6.94412C9.9 6.88475 9.92188 6.83475 9.9375 6.83475C9.95625 6.83475 9.97813 6.7785 9.9875 6.70975C10 6.641 10.0188 6.58475 10.0313 6.58475C10.0469 6.58475 10.0656 6.541 10.0781 6.491C10.0906 6.43787 10.1094 6.39725 10.125 6.39725C10.1375 6.39725 10.1594 6.34725 10.1688 6.28787C10.1813 6.2285 10.2031 6.1785 10.2188 6.1785C10.2313 6.1785 10.2531 6.12225 10.2656 6.0535C10.2781 5.98475 10.3 5.9285 10.3156 5.9285C10.3313 5.9285 10.3438 5.90975 10.3438 5.88787C10.3469 5.86912 10.3719 5.79412 10.4063 5.72537C10.4406 5.65662 10.4656 5.58162 10.4688 5.55975C10.4688 5.541 10.4813 5.52225 10.4969 5.52225C10.5125 5.52225 10.5344 5.466 10.5469 5.39725C10.5594 5.3285 10.5813 5.27225 10.5969 5.27225C10.6125 5.27225 10.625 5.25662 10.625 5.23787C10.625 5.20975 10.6719 5.09725 10.8 4.81287C10.825 4.75975 10.8438 4.69412 10.8438 4.666C10.8438 4.63787 10.8594 4.616 10.875 4.616C10.8938 4.616 10.9063 4.60037 10.9063 4.58162C10.9063 4.5535 10.9531 4.441 11.0813 4.15662C11.1063 4.1035 11.125 4.03787 11.125 4.00975C11.125 3.98162 11.1406 3.95975 11.1563 3.95975C11.175 3.95975 11.1875 3.94412 11.1875 3.92537C11.1875 3.90662 11.2063 3.84725 11.2313 3.79412C11.3688 3.49412 11.4063 3.39725 11.4063 3.3535C11.4063 3.32537 11.4188 3.3035 11.4375 3.3035C11.4531 3.3035 11.475 3.2535 11.4875 3.19412C11.4969 3.13475 11.5188 3.08475 11.5344 3.08475C11.55 3.08475 11.5625 3.066 11.5625 3.04412C11.5625 3.02537 11.5813 2.96912 11.6063 2.92225C11.6313 2.87537 11.6594 2.79725 11.6719 2.74412C11.6844 2.691 11.7063 2.64725 11.7188 2.64725C11.7344 2.64725 11.7563 2.59725 11.7688 2.53787C11.7781 2.4785 11.8 2.4285 11.8156 2.4285C11.8313 2.4285 11.8438 2.40975 11.8438 2.38787C11.8438 2.36912 11.8625 2.31287 11.8875 2.266C11.9125 2.21912 11.9406 2.141 11.9531 2.08787C11.9656 2.03475 11.9844 1.991 12 1.991C12.0156 1.991 12.0344 2.03475 12.0469 2.08787Z" fill="white"/>
</g>
</g>
<defs>
<clipPath id="clip0_8_5">
<rect width="24" height="24" fill="white"/>
</clipPath>
<clipPath id="clip1_8_5">
<rect width="24" height="24" fill="white"/>
</clipPath>
</defs>
</svg>
