<svg width="24" height="24" viewBox="0 0 24 24" fill="none" xmlns="http://www.w3.org/2000/svg">
<path d="M6.85257 1.29785C7.0649 1.41388 7.18847 1.54969 7.26565 1.78124C7.26565 2.26077 7.26565 2.74031 7.26565 3.23437C8.5805 3.23437 9.89534 3.23437 11.25 3.23437C11.25 2.73937 11.25 2.24437 11.25 1.73437C11.5313 1.31249 11.5313 1.31249 11.8125 1.21874C12.0758 1.20148 12.2427 1.20864 12.4688 1.35937C13.0181 1.91615 12.75 2.19899 12.75 3.23437C14.0649 3.23437 15.3797 3.23437 16.7344 3.23437C16.7344 2.75484 16.7344 2.27531 16.7344 1.78124C16.8743 1.50155 16.9537 1.39446 17.2207 1.2539C17.5001 1.17409 17.7128 1.21028 17.9627 1.34637C18.1356 1.46926 18.2158 1.63168 18.2813 1.82812C18.2852 1.93517 18.2863 2.04234 18.2859 2.14947C18.2858 2.19599 18.2858 2.19599 18.2857 2.24345C18.2854 2.34231 18.2848 2.44117 18.2842 2.54003C18.284 2.60714 18.2838 2.67425 18.2836 2.74136C18.2831 2.9057 18.2822 3.07003 18.2813 3.23437C18.3212 3.23363 18.3212 3.23363 18.362 3.23288C19.5808 3.21341 20.6191 3.39206 21.5625 4.21874C21.5948 4.24654 21.6271 4.27433 21.6603 4.30297C22.324 4.91678 22.7503 5.86928 22.7857 6.76882C22.7876 6.90353 22.788 7.03818 22.7879 7.17291C22.7881 7.25035 22.7881 7.25035 22.7883 7.32935C22.7887 7.50214 22.7888 7.67492 22.7888 7.8477C22.7891 7.97168 22.7893 8.09567 22.7895 8.21965C22.7902 8.55642 22.7905 8.89318 22.7907 9.22995C22.7908 9.44052 22.791 9.6511 22.7912 9.86167C22.7918 10.4455 22.7923 11.0293 22.7924 11.6132C22.7924 11.6505 22.7924 11.6878 22.7925 11.7263C22.7925 11.7637 22.7925 11.8012 22.7925 11.8397C22.7925 11.9155 22.7925 11.9913 22.7925 12.0672C22.7926 12.1048 22.7926 12.1424 22.7926 12.1811C22.7928 12.7897 22.7936 13.3983 22.7947 14.0069C22.7958 14.6328 22.7964 15.2587 22.7964 15.8846C22.7965 16.2356 22.7967 16.5865 22.7976 16.9375C22.7983 17.2366 22.7985 17.5356 22.7982 17.8346C22.798 17.9869 22.7981 18.1392 22.7987 18.2915C22.8035 19.6219 22.6247 20.7242 21.6779 21.7324C20.9279 22.4562 19.9722 22.8127 18.9374 22.8051C18.8746 22.8053 18.8119 22.8056 18.7491 22.8059C18.5789 22.8067 18.4087 22.8063 18.2385 22.8058C18.054 22.8053 17.8696 22.806 17.6852 22.8065C17.3247 22.8073 16.9643 22.8072 16.6039 22.8066C16.3107 22.8062 16.0176 22.8061 15.7244 22.8063C15.6617 22.8064 15.6617 22.8064 15.5976 22.8064C15.5126 22.8065 15.4275 22.8065 15.3425 22.8066C14.5465 22.8071 13.7506 22.8065 12.9547 22.8055C12.273 22.8047 11.5912 22.8048 10.9095 22.8057C10.1163 22.8067 9.32302 22.8071 8.52978 22.8065C8.44506 22.8064 8.36034 22.8064 8.27562 22.8063C8.23395 22.8063 8.19228 22.8063 8.14934 22.8062C7.85682 22.8061 7.56431 22.8064 7.27179 22.8068C6.91491 22.8073 6.55804 22.8072 6.20116 22.8062C6.01936 22.8057 5.83757 22.8055 5.65577 22.8061C5.48887 22.8067 5.32199 22.8064 5.15509 22.8054C5.06715 22.8051 4.9792 22.8057 4.89126 22.8063C4.33655 22.8013 3.799 22.6755 3.30764 22.4121C3.27625 22.3958 3.24485 22.3795 3.21251 22.3627C2.98315 22.2409 2.77519 22.1073 2.57815 21.9375C2.52894 21.8991 2.52894 21.8991 2.47872 21.8599C1.76268 21.2741 1.33919 20.3799 1.22875 19.4705C1.20982 19.2596 1.21201 19.0486 1.21219 18.8371C1.21205 18.7854 1.21191 18.7337 1.21177 18.6805C1.21136 18.5079 1.21129 18.3352 1.21122 18.1626C1.21101 18.0386 1.21077 17.9146 1.21052 17.7906C1.20988 17.454 1.2096 17.1175 1.20939 16.7809C1.20926 16.5704 1.20906 16.36 1.20885 16.1495C1.20828 15.5659 1.2078 14.9822 1.20764 14.3986C1.20763 14.3613 1.20762 14.324 1.20761 14.2855C1.2076 14.2481 1.20759 14.2107 1.20758 14.1722C1.20756 14.0964 1.20754 14.0207 1.20751 13.9449C1.2075 13.9073 1.20749 13.8698 1.20748 13.831C1.2073 13.2227 1.20648 12.6145 1.20539 12.0062C1.20427 11.3805 1.20369 10.7548 1.20364 10.1291C1.2036 9.77829 1.20333 9.42747 1.20247 9.07665C1.20175 8.77778 1.20151 8.47892 1.2019 8.18005C1.20208 8.02787 1.20197 7.87569 1.20138 7.72351C1.19656 6.39425 1.38871 5.30286 2.32913 4.30077C3.13513 3.53226 4.1583 3.22154 5.25296 3.23144C5.32053 3.23176 5.32053 3.23176 5.38946 3.23208C5.49924 3.23263 5.60901 3.23339 5.71878 3.23437C5.7173 3.17341 5.7173 3.17341 5.7158 3.11123C5.71259 2.95887 5.71025 2.80653 5.70848 2.65415C5.70754 2.5885 5.70627 2.52286 5.70463 2.45722C5.68803 1.77246 5.68803 1.77246 5.90628 1.45312C6.20259 1.21728 6.49778 1.13369 6.85257 1.29785ZM3.28128 5.57812C2.54394 6.53999 2.76565 7.45032 2.76565 8.71874C8.86034 8.71874 14.955 8.71874 21.2344 8.71874C21.3355 6.89273 21.3355 6.89273 20.5558 5.406C20.0199 4.91157 19.4415 4.77174 18.7325 4.77831C18.6673 4.77863 18.6673 4.77863 18.6008 4.77895C18.4943 4.7795 18.3878 4.78027 18.2813 4.78124C18.2806 4.84007 18.2806 4.84007 18.28 4.90008C18.2779 5.04722 18.275 5.19432 18.2716 5.34143C18.2696 5.43576 18.2686 5.5301 18.2675 5.62444C18.2588 5.97131 18.2419 6.22405 18.0469 6.51562C17.8483 6.6874 17.6577 6.73142 17.3972 6.71813C17.1821 6.68594 17.053 6.60289 16.9073 6.44531C16.5797 5.95999 16.7545 5.38254 16.7344 4.78124C15.4196 4.78124 14.1047 4.78124 12.75 4.78124C12.7346 5.26077 12.7191 5.74031 12.7032 6.23437C12.6567 6.31171 12.6103 6.38906 12.5625 6.46874C12.5625 6.49968 12.5625 6.53062 12.5625 6.56249C12.2491 6.68957 11.9871 6.76691 11.6602 6.64745C11.4929 6.53723 11.3863 6.41322 11.2969 6.23437C11.2814 5.75484 11.266 5.27531 11.25 4.78124C9.93519 4.78124 8.62034 4.78124 7.26565 4.78124C7.25018 5.24531 7.23472 5.70937 7.21878 6.18749C7.05604 6.51297 7.05604 6.51297 6.84378 6.65624C6.61881 6.73123 6.40002 6.74885 6.17526 6.66229C5.98671 6.55599 5.87503 6.4609 5.79307 6.25276C5.7284 5.98826 5.73798 5.7114 5.73343 5.44042C5.73187 5.37643 5.73025 5.31243 5.72857 5.24844C5.72472 5.09271 5.72148 4.93699 5.71878 4.78124C4.7611 4.75569 3.96649 4.83542 3.28128 5.57812ZM2.76565 10.2656C2.76236 11.4294 2.75988 12.5931 2.75837 13.7568C2.75764 14.2972 2.75665 14.8376 2.75504 15.378C2.75364 15.8491 2.75273 16.3203 2.75242 16.7914C2.75224 17.0407 2.75181 17.2901 2.75078 17.5394C2.74982 17.7744 2.74953 18.0094 2.74975 18.2444C2.74971 18.3303 2.74943 18.4163 2.74889 18.5022C2.7441 19.3011 2.83827 20.0122 3.40744 20.62C4.04635 21.2027 4.78719 21.2965 5.62078 21.2931C5.67795 21.2933 5.73512 21.2934 5.79403 21.2936C5.95064 21.2939 6.10724 21.2938 6.26385 21.2935C6.43355 21.2933 6.60326 21.2936 6.77296 21.2939C7.10457 21.2943 7.43619 21.2942 7.7678 21.2939C8.03749 21.2937 8.30717 21.2937 8.57686 21.2938C8.61536 21.2938 8.65386 21.2938 8.69353 21.2938C8.77177 21.2939 8.85001 21.2939 8.92825 21.2939C9.66042 21.2942 10.3926 21.2939 11.1248 21.2934C11.752 21.293 12.3792 21.293 13.0064 21.2935C13.7362 21.294 14.4659 21.2942 15.1957 21.2939C15.2736 21.2938 15.3516 21.2938 15.4295 21.2938C15.4678 21.2938 15.5061 21.2938 15.5456 21.2937C15.8148 21.2937 16.0839 21.2938 16.3531 21.294C16.6814 21.2943 17.0097 21.2942 17.338 21.2937C17.5052 21.2935 17.6725 21.2934 17.8398 21.2937C18.0216 21.294 18.2034 21.2936 18.3852 21.2931C18.4374 21.2934 18.4895 21.2936 18.5432 21.2938C19.339 21.2898 20.0367 21.1444 20.625 20.5781C21.2022 19.9375 21.2555 19.1949 21.2504 18.3713C21.2503 18.2821 21.2504 18.1929 21.2504 18.1036C21.2505 17.863 21.2497 17.6224 21.2487 17.3818C21.2478 17.1297 21.2477 16.8776 21.2475 16.6256C21.2471 16.149 21.246 15.6724 21.2445 15.1958C21.243 14.6529 21.2422 14.11 21.2415 13.5671C21.24 12.451 21.2375 11.3349 21.2344 10.2187C19.7413 10.2176 18.2482 10.2168 16.7552 10.2163C16.5748 10.2163 16.3945 10.2162 16.2142 10.2162C16.1604 10.2161 16.1604 10.2161 16.1055 10.2161C15.6098 10.216 15.1141 10.2157 14.6184 10.2153C13.7582 10.2146 12.8981 10.2142 12.0379 10.2142C12.0038 10.2142 11.9698 10.2142 11.9346 10.2142C8.87817 10.2141 5.82198 10.236 2.76565 10.2656Z" fill="white"/>
<path d="M12.75 12.4219C12.9861 12.6196 13.168 12.8792 13.2656 13.1719C13.3059 13.6483 13.2371 13.96 12.9785 14.3555C12.6919 14.6296 12.3205 14.7848 11.9225 14.7788C11.5757 14.7373 11.2535 14.5986 11.0156 14.3437C10.7651 13.9568 10.6875 13.6344 10.7343 13.1719C10.8647 12.7702 11.1165 12.4864 11.4843 12.2812C11.9199 12.1255 12.3633 12.1653 12.75 12.4219Z" fill="white"/>
<path d="M12.6943 16.3775C12.9781 16.5868 13.1983 16.8513 13.2656 17.2031C13.3086 17.6513 13.2597 17.987 12.9756 18.3398C12.761 18.5717 12.4777 18.732 12.1593 18.7612C11.7043 18.7723 11.378 18.6705 11.0392 18.3616C10.7832 18.0697 10.717 17.7308 10.7215 17.3533C10.7519 16.9981 10.892 16.7127 11.1581 16.4753C11.6084 16.137 12.2019 16.09 12.6943 16.3775Z" fill="white"/>
<path d="M17.7657 12.4219C18.0964 12.7193 18.2756 13.0247 18.3018 13.4707C18.2875 13.811 18.1757 14.1374 17.9414 14.3877C17.6642 14.6357 17.3714 14.7491 17.0039 14.7773C16.6029 14.7506 16.2777 14.5972 15.9991 14.3057C15.7239 13.9264 15.6989 13.5906 15.75 13.125C15.8461 12.7989 16.0278 12.5591 16.3125 12.375C16.7783 12.138 17.3276 12.1032 17.7657 12.4219Z" fill="white"/>
<path d="M7.82921 12.4757C8.0607 12.6926 8.23567 12.9563 8.26281 13.2761C8.2746 13.7218 8.23125 14.0449 7.93303 14.3934C7.66566 14.6542 7.37321 14.7441 7.0078 14.7832C6.53691 14.7328 6.21285 14.5746 5.90624 14.2031C5.70055 13.8342 5.65831 13.46 5.76561 13.0547C5.88526 12.734 6.12379 12.4669 6.42479 12.3047C6.89474 12.1065 7.41937 12.1732 7.82921 12.4757Z" fill="white"/>
<path d="M17.5889 16.311C17.901 16.4929 18.0942 16.7295 18.2343 17.0625C18.334 17.473 18.2897 17.8281 18.0835 18.1956C17.8996 18.4673 17.6594 18.6339 17.3459 18.7317C16.9609 18.8052 16.6056 18.7586 16.2656 18.5625C16.0063 18.3707 15.8263 18.1274 15.75 17.8125C15.7097 17.4269 15.6929 17.0536 15.9375 16.7344C16.0517 16.6055 16.0517 16.6055 16.1719 16.5C16.2284 16.4492 16.2284 16.4492 16.2861 16.3975C16.6443 16.1441 17.1924 16.1308 17.5889 16.311Z" fill="white"/>
<path d="M7.73437 16.4063C7.86621 16.5205 7.86621 16.5205 7.96875 16.6406C8.00258 16.6793 8.03642 16.718 8.07129 16.7578C8.30366 17.0783 8.28131 17.4336 8.25 17.8125C8.17492 18.1272 7.99309 18.3712 7.73437 18.5625C7.42104 18.7432 7.10778 18.8005 6.75 18.75C6.36314 18.6456 6.07319 18.4684 5.86816 18.1172C5.69154 17.7925 5.66811 17.4386 5.77148 17.0859C5.91216 16.7064 6.14864 16.4387 6.51562 16.2656C6.9173 16.1337 7.3803 16.1776 7.73437 16.4063Z" fill="white"/>
</svg>
