<svg width="42" height="39" viewBox="0 0 42 39" fill="none" xmlns="http://www.w3.org/2000/svg">
<path d="M9.59219 0.0454102C9.41172 0.0857849 9.13828 0.252331 9.13281 0.312893C9.13281 0.338127 9.09453 0.353268 9.05078 0.353268C9.00703 0.353268 8.96875 0.383549 8.96875 0.418877C8.96875 0.454208 8.91953 0.519817 8.85938 0.570286C8.79922 0.615707 8.75 0.686363 8.75 0.726738C8.75 0.767113 8.71719 0.807487 8.68437 0.817581C8.62969 0.837769 8.60781 1.1103 8.59688 1.90771L8.58047 2.97765H7.08203C6.25625 2.97765 5.57266 2.99784 5.55625 3.02307C5.53984 3.04326 5.36484 3.07859 5.1625 3.09373C4.96562 3.11391 4.77422 3.14924 4.73594 3.17448C4.70312 3.19971 4.58828 3.23504 4.48438 3.25523C4.38047 3.27542 4.27109 3.31075 4.23828 3.33093C4.21094 3.35112 4.10156 3.38645 4.00312 3.40664C3.91016 3.42178 3.82812 3.4571 3.82812 3.48234C3.82812 3.50253 3.7625 3.53785 3.68047 3.55804C3.59844 3.57318 3.51641 3.60851 3.5 3.62365C3.48359 3.64384 3.35234 3.7145 3.19922 3.78515C3.05156 3.85581 2.90391 3.9416 2.88203 3.97189C2.86016 4.00721 2.8 4.03749 2.76172 4.03749C2.71797 4.03749 2.67969 4.05264 2.67969 4.07282C2.67969 4.09806 2.58672 4.16872 2.47734 4.23937C2.22031 4.40087 1.4875 5.07715 1.3125 5.31436C1.23594 5.41529 1.15937 5.50109 1.1375 5.50109C1.11016 5.50109 1.09375 5.53642 1.09375 5.5768C1.09375 5.61213 1.06094 5.66764 1.02812 5.68783C0.989844 5.70802 0.896875 5.83923 0.820312 5.98055C0.74375 6.11681 0.667188 6.24298 0.645312 6.25813C0.628906 6.27327 0.590625 6.34897 0.574219 6.42467C0.552344 6.50038 0.514062 6.56094 0.492188 6.56094C0.464844 6.56094 0.426562 6.63664 0.410156 6.72244C0.388281 6.81328 0.35 6.90917 0.328125 6.93946C0.30625 6.96469 0.267969 7.07067 0.246094 7.16656C0.224219 7.26245 0.185937 7.36844 0.158594 7.39367C0.0109375 7.56527 0 8.69073 0 20.8941C0 33.0975 0.0109375 34.2229 0.158594 34.3945C0.185937 34.4197 0.224219 34.5257 0.246094 34.6216C0.267969 34.7175 0.30625 34.8185 0.328125 34.8487C0.35 34.874 0.388281 34.9749 0.410156 35.0658C0.426562 35.1515 0.464844 35.2273 0.492188 35.2273C0.514062 35.2273 0.552344 35.2878 0.574219 35.3635C0.590625 35.4392 0.628906 35.5149 0.645312 35.5301C0.667188 35.5452 0.74375 35.6663 0.820312 35.8076C0.896875 35.9439 0.989844 36.0802 1.02812 36.1004C1.06094 36.1205 1.09375 36.1761 1.09375 36.2114C1.09375 36.2518 1.11016 36.2871 1.1375 36.2871C1.15937 36.2871 1.23594 36.3729 1.3125 36.4738C1.4875 36.711 2.22031 37.3873 2.47734 37.5488C2.58672 37.6195 2.67969 37.6901 2.67969 37.7103C2.67969 37.7356 2.71797 37.7507 2.76172 37.7507C2.8 37.7507 2.86016 37.781 2.88203 37.8113C2.90391 37.8466 3.05156 37.9324 3.19922 38.003C3.35234 38.0737 3.48359 38.1444 3.5 38.1645C3.51641 38.1797 3.59844 38.215 3.68047 38.2301C3.7625 38.2503 3.82812 38.2857 3.82812 38.3059C3.82812 38.3311 3.91016 38.3664 4.00312 38.3816C4.10156 38.4017 4.21094 38.4371 4.23828 38.4573C4.27109 38.4774 4.38047 38.5128 4.48438 38.533C4.58828 38.5531 4.70312 38.5885 4.73047 38.6137C4.91641 38.75 6.16328 38.7601 21 38.7601C35.8367 38.7601 37.0836 38.75 37.2695 38.6137C37.2969 38.5885 37.4117 38.5531 37.5156 38.533C37.6195 38.5128 37.7344 38.4774 37.7617 38.4573C37.7945 38.4371 37.8984 38.4017 37.9969 38.3816C38.0898 38.3664 38.1719 38.3311 38.1719 38.3059C38.1719 38.2857 38.2375 38.2503 38.3195 38.2301C38.4016 38.215 38.4836 38.1797 38.5 38.1645C38.5164 38.1444 38.6531 38.0737 38.8008 38.003C38.9539 37.9324 39.0961 37.8466 39.118 37.8163C39.1398 37.781 39.2 37.7507 39.2383 37.7507C39.282 37.7507 39.3203 37.7356 39.3203 37.7103C39.3203 37.6901 39.4133 37.6195 39.5227 37.5488C39.7797 37.3873 40.5125 36.711 40.6875 36.4738C40.7641 36.3729 40.8406 36.2871 40.868 36.2871C40.8898 36.2871 40.9062 36.2518 40.9062 36.2114C40.9062 36.1761 40.9391 36.1205 40.9773 36.1004C41.0102 36.0802 41.1031 35.9439 41.1797 35.8076C41.2562 35.6663 41.3328 35.5452 41.3547 35.5301C41.3711 35.5149 41.4094 35.4392 41.4258 35.3635C41.4477 35.2878 41.4859 35.2273 41.5078 35.2273C41.5352 35.2273 41.5734 35.1515 41.5898 35.0658C41.6117 34.9749 41.65 34.874 41.6719 34.8487C41.6937 34.8185 41.732 34.7175 41.7539 34.6216C41.7758 34.5257 41.8141 34.4197 41.8414 34.3945C41.9781 34.233 42.0547 32.4666 41.9398 32.083C41.8852 31.8862 41.7484 31.7146 41.5133 31.5228C41.4422 31.4623 41.3492 31.3866 41.3109 31.3512C41.2727 31.3159 41.1633 31.2755 41.0758 31.2604C40.9828 31.2402 40.9062 31.2099 40.9062 31.1847C40.9062 31.1595 40.6602 31.1393 40.3594 31.1393C40.0586 31.1393 39.8125 31.1595 39.8125 31.1847C39.8125 31.2099 39.7414 31.2402 39.6484 31.2554C39.4844 31.2856 39.282 31.4219 39.0797 31.6389C39.0141 31.7045 38.932 31.7903 38.8937 31.8256C38.8555 31.861 38.8117 31.9619 38.7953 32.0427C38.7734 32.1285 38.7406 32.1991 38.7188 32.1991C38.6914 32.1991 38.6586 32.4212 38.6367 32.6887C38.6203 32.9612 38.582 33.2186 38.5547 33.264C38.5328 33.3094 38.4945 33.4507 38.4727 33.582C38.4508 33.7081 38.4125 33.8141 38.3906 33.8141C38.3687 33.8141 38.3305 33.8747 38.3141 33.9453C38.2922 34.016 38.2539 34.1018 38.2211 34.1321C38.0078 34.3693 37.9531 34.4399 37.9531 34.4753C37.9531 34.5257 37.4117 35.0254 37.357 35.0254C37.3187 35.0254 37.2422 35.0758 36.9852 35.2727C36.9523 35.303 36.8594 35.3383 36.7828 35.3585C36.7062 35.3736 36.6406 35.4089 36.6406 35.4291C36.6406 35.4493 36.5258 35.4846 36.3836 35.5048C36.2359 35.525 36.0883 35.5654 36.0445 35.5957C35.9352 35.6815 6.06484 35.6815 5.95547 35.5957C5.91172 35.5654 5.76406 35.525 5.61641 35.5048C5.47422 35.4846 5.35938 35.4493 5.35938 35.4291C5.35938 35.4089 5.29375 35.3736 5.21719 35.3585C5.14062 35.3383 5.04766 35.303 5.01484 35.2727C4.75781 35.0758 4.68125 35.0254 4.64297 35.0254C4.58828 35.0254 4.04688 34.5257 4.04688 34.4753C4.04688 34.4399 3.99219 34.3693 3.77891 34.1321C3.74609 34.1018 3.70781 34.016 3.68594 33.9453C3.66953 33.8747 3.63125 33.8141 3.60938 33.8141C3.5875 33.8141 3.54922 33.7081 3.52734 33.5719C3.50547 33.4407 3.46172 33.3044 3.42891 33.264C3.33594 33.1631 3.33594 8.62511 3.42891 8.52418C3.46172 8.4838 3.50547 8.34754 3.52734 8.21127C3.54922 8.08005 3.5875 7.97407 3.60938 7.97407C3.63125 7.97407 3.66953 7.9135 3.68594 7.84285C3.70781 7.77219 3.74609 7.68639 3.77891 7.65611C3.99219 7.41891 4.04688 7.34825 4.04688 7.31293C4.04688 7.26245 4.58828 6.76281 4.64297 6.76281C4.68125 6.76281 4.75781 6.71235 5.01484 6.51552C5.04766 6.48524 5.14062 6.44991 5.21719 6.42972C5.29375 6.41458 5.35938 6.37925 5.35938 6.35906C5.35938 6.33887 5.47422 6.30355 5.62187 6.28336C5.76406 6.26317 5.91172 6.22784 5.94453 6.19756C5.98828 6.16728 6.55156 6.137 7.29531 6.11681L8.58047 6.09158L8.59688 7.16656C8.60781 7.96902 8.62969 8.2466 8.68437 8.26679C8.71719 8.27688 8.75 8.31726 8.75 8.35763C8.75 8.398 8.79922 8.46866 8.85938 8.51408C8.91953 8.56455 8.96875 8.63016 8.96875 8.66549C8.96875 8.70082 9.00703 8.7311 9.05078 8.7311C9.09453 8.7311 9.13281 8.74624 9.13281 8.76643C9.13281 8.83708 9.49375 9.03391 9.61406 9.03391C9.67969 9.03391 9.73438 9.0541 9.73438 9.08438C9.73438 9.11466 9.94219 9.13485 10.2539 9.13485C10.5656 9.13485 10.7734 9.11466 10.7734 9.08438C10.7734 9.0541 10.8281 9.03391 10.8938 9.03391C11.0141 9.03391 11.375 8.83708 11.375 8.76643C11.375 8.74624 11.4133 8.7311 11.457 8.7311C11.5008 8.7311 11.5391 8.70082 11.5391 8.66549C11.5391 8.63016 11.5883 8.56455 11.6484 8.51408C11.7086 8.46866 11.7578 8.398 11.7578 8.35763C11.7578 8.31726 11.7906 8.27688 11.8289 8.26679C11.8781 8.2466 11.9 7.97407 11.9109 7.17666L11.9273 6.10672H15.5859H19.2445L19.2609 7.17666C19.2719 7.97407 19.2937 8.2466 19.3484 8.26679C19.3813 8.27688 19.4141 8.31726 19.4141 8.35763C19.4141 8.398 19.4633 8.46866 19.5234 8.51408C19.5836 8.56455 19.6328 8.63016 19.6328 8.66549C19.6328 8.70082 19.6711 8.7311 19.7148 8.7311C19.7586 8.7311 19.7969 8.74624 19.7969 8.76643C19.7969 8.83708 20.1578 9.03391 20.2781 9.03391C20.3438 9.03391 20.3984 9.0541 20.3984 9.08438C20.3984 9.11466 20.6062 9.13485 20.918 9.13485C21.2297 9.13485 21.4375 9.11466 21.4375 9.08438C21.4375 9.0541 21.4922 9.03391 21.5578 9.03391C21.6781 9.03391 22.0391 8.83708 22.0391 8.76643C22.0391 8.74624 22.0773 8.7311 22.1211 8.7311C22.1648 8.7311 22.2031 8.70082 22.2031 8.66549C22.2031 8.63016 22.2523 8.56455 22.3125 8.51408C22.3727 8.46866 22.4219 8.398 22.4219 8.35763C22.4219 8.31726 22.4547 8.27688 22.493 8.26679C22.5422 8.2466 22.5641 7.97407 22.575 7.17666L22.5914 6.10672H26.2828H29.9688V7.09086C29.9688 7.63088 29.9906 8.075 30.018 8.075C30.0453 8.075 30.0781 8.14061 30.0945 8.22641C30.1273 8.37782 30.275 8.56455 30.5102 8.75129C30.5812 8.81185 30.6742 8.88755 30.7125 8.92288C30.7508 8.95821 30.8602 8.99858 30.9477 9.01373C31.0406 9.03391 31.1172 9.06419 31.1172 9.08943C31.1172 9.11466 31.3633 9.13485 31.6641 9.13485C31.9648 9.13485 32.2109 9.11466 32.2109 9.08943C32.2109 9.06419 32.282 9.03391 32.375 9.01877C32.5391 8.98849 32.7414 8.85222 32.9437 8.63521C33.0094 8.5696 33.0914 8.4838 33.1297 8.44847C33.168 8.41315 33.2117 8.31221 33.2281 8.23146C33.25 8.14566 33.2828 8.075 33.3102 8.075C33.3375 8.075 33.3594 7.63088 33.3594 7.08582V6.09158L34.6719 6.11681C35.443 6.13195 36.0117 6.16728 36.0555 6.19756C36.0883 6.22784 36.2359 6.26317 36.3836 6.28336C36.5258 6.30355 36.6406 6.33887 36.6406 6.35906C36.6406 6.37925 36.7062 6.41458 36.7828 6.42972C36.8594 6.44991 36.9523 6.48524 36.9852 6.51552C37.2422 6.71235 37.3187 6.76281 37.357 6.76281C37.4117 6.76281 37.9531 7.26245 37.9531 7.31293C37.9531 7.34825 38.0078 7.41891 38.2211 7.65611C38.2539 7.68639 38.2922 7.77219 38.3141 7.84285C38.3305 7.9135 38.3687 7.97407 38.3906 7.97407C38.4125 7.97407 38.4508 8.08005 38.4727 8.21127C38.4945 8.34754 38.5383 8.4838 38.5711 8.52418C38.6203 8.57969 38.6422 10.7599 38.6531 17.119C38.6586 21.8025 38.6859 25.6382 38.7133 25.6382C38.7406 25.6382 38.7734 25.7038 38.7898 25.7896C38.8227 25.941 38.9703 26.1277 39.2055 26.3145C39.2766 26.375 39.3695 26.4507 39.4078 26.486C39.4461 26.5214 39.5555 26.5617 39.643 26.5769C39.7359 26.5971 39.8125 26.6274 39.8125 26.6526C39.8125 26.6778 40.0586 26.698 40.3594 26.698C40.6602 26.698 40.9062 26.6778 40.9062 26.6526C40.9062 26.6274 40.9773 26.5971 41.0703 26.5819C41.2344 26.5517 41.4367 26.4154 41.6391 26.1984C41.7047 26.1328 41.7812 26.052 41.8195 26.0167C41.9945 25.8501 42 25.5574 42 16.9323C42 8.61502 41.9836 7.56022 41.8414 7.39367C41.8141 7.36844 41.7758 7.26245 41.7539 7.16656C41.732 7.07067 41.6937 6.96469 41.6719 6.93946C41.65 6.90917 41.6117 6.81328 41.5898 6.72244C41.5734 6.63664 41.5352 6.56094 41.5078 6.56094C41.4859 6.56094 41.4477 6.50038 41.4258 6.42467C41.4094 6.34897 41.3711 6.27327 41.3547 6.25813C41.3328 6.24298 41.2562 6.11681 41.1797 5.98055C41.1031 5.83923 41.0102 5.70802 40.9773 5.68783C40.9391 5.66764 40.9062 5.61213 40.9062 5.5768C40.9062 5.53642 40.8898 5.50109 40.868 5.50109C40.8406 5.50109 40.7641 5.41529 40.6875 5.31436C40.5125 5.07715 39.7797 4.40087 39.5227 4.23937C39.4133 4.16872 39.3203 4.09806 39.3203 4.07282C39.3203 4.05264 39.282 4.03749 39.2383 4.03749C39.2 4.03749 39.1398 4.00721 39.118 3.97189C39.0961 3.9416 38.9539 3.85581 38.8008 3.78515C38.6531 3.7145 38.5164 3.64384 38.5 3.62365C38.4836 3.60851 38.4016 3.57318 38.3195 3.55804C38.2375 3.53785 38.1719 3.50253 38.1719 3.48234C38.1719 3.4571 38.0898 3.42178 37.9969 3.40664C37.8984 3.38645 37.7945 3.35112 37.7617 3.33093C37.7344 3.31075 37.6195 3.27542 37.5156 3.25523C37.4117 3.23504 37.2969 3.19971 37.2641 3.17448C37.2258 3.14924 37.0344 3.11391 36.8375 3.09373C36.6352 3.07859 36.4602 3.04326 36.4437 3.02307C36.4273 2.99784 35.7273 2.97765 34.8852 2.97765H33.3594V1.99351C33.3594 1.45349 33.3375 1.00937 33.3102 1.00937C33.2828 1.00937 33.25 0.943756 33.2336 0.857956C33.2008 0.726738 33.0859 0.565239 32.8891 0.383549C32.55 0.0706444 32.3258 -1.14441e-05 31.6641 -1.14441e-05C31.0023 -1.14441e-05 30.7781 0.0706444 30.4391 0.383549C30.2422 0.565239 30.1273 0.726738 30.0945 0.857956C30.0781 0.943756 30.0453 1.00937 30.018 1.00937C29.9906 1.00937 29.9688 1.45349 29.9688 1.99351V2.97765H26.2828H22.5914L22.575 1.90771C22.5641 1.1103 22.5422 0.837769 22.493 0.817581C22.4547 0.807487 22.4219 0.767113 22.4219 0.726738C22.4219 0.686363 22.3727 0.615707 22.3125 0.570286C22.2523 0.519817 22.2031 0.454208 22.2031 0.418877C22.2031 0.383549 22.1648 0.353268 22.1211 0.353268C22.0773 0.353268 22.0391 0.338127 22.0391 0.312893C22.0391 0.292706 21.9461 0.22205 21.8367 0.151394C21.6508 0.0302696 21.5961 0.0252228 20.918 0.0252228C20.2398 0.0252228 20.1852 0.0302696 19.9992 0.151394C19.8898 0.22205 19.7969 0.292706 19.7969 0.312893C19.7969 0.338127 19.7586 0.353268 19.7148 0.353268C19.6711 0.353268 19.6328 0.383549 19.6328 0.418877C19.6328 0.454208 19.5836 0.519817 19.5234 0.570286C19.4633 0.615707 19.4141 0.686363 19.4141 0.726738C19.4141 0.767113 19.3813 0.807487 19.3484 0.817581C19.2937 0.837769 19.2719 1.1103 19.2609 1.90771L19.2445 2.97765H15.5859H11.9273L11.9109 1.90771C11.9 1.1103 11.8781 0.837769 11.8289 0.817581C11.7906 0.807487 11.7578 0.767113 11.7578 0.726738C11.7578 0.686363 11.7086 0.615707 11.6484 0.570286C11.5883 0.519817 11.5391 0.454208 11.5391 0.418877C11.5391 0.383549 11.5008 0.353268 11.457 0.353268C11.4133 0.353268 11.375 0.338127 11.375 0.312893C11.375 0.292706 11.2875 0.22205 11.1781 0.156441C11.0031 0.0454102 10.9156 0.0302696 10.3742 0.0201759C10.0352 0.0100822 9.68516 0.0201759 9.59219 0.0454102Z" fill="white"/>
<path d="M29.0389 15.2212C28.7764 15.312 28.6014 15.4029 28.6014 15.4433C28.6014 15.4735 28.5631 15.4937 28.5193 15.4937C28.4756 15.4937 28.399 15.5543 28.3443 15.63C28.2896 15.7107 28.2185 15.7915 28.1857 15.8218C28.1529 15.847 28.0435 15.9833 27.9396 16.1246C27.7264 16.4123 27.7045 16.4375 27.5623 16.599C27.5021 16.6646 27.4529 16.7504 27.4529 16.7908C27.4529 16.8261 27.431 16.8564 27.4092 16.8564C27.3818 16.8564 27.267 16.9876 27.1467 17.1441C26.9115 17.4671 26.9006 17.4822 26.742 17.6588C26.6818 17.7245 26.6326 17.7951 26.6326 17.8203C26.6326 17.8557 26.4904 18.0222 26.2935 18.2191C26.2443 18.2695 26.1896 18.3553 26.1732 18.4108C26.1514 18.4663 26.1021 18.5269 26.0584 18.5421C26.0146 18.5572 25.9764 18.6026 25.9764 18.648C25.9764 18.6884 25.9545 18.7237 25.9271 18.7237C25.8998 18.7237 25.856 18.7742 25.8396 18.8348C25.8178 18.8903 25.7467 18.9912 25.681 19.0467C25.6099 19.1073 25.5443 19.1931 25.5224 19.2385C25.506 19.289 25.4623 19.3294 25.4295 19.3294C25.4021 19.3294 25.3748 19.3647 25.3748 19.4051C25.3748 19.4454 25.3256 19.5211 25.2654 19.5666C25.2053 19.617 25.156 19.6826 25.156 19.718C25.156 19.7533 25.1396 19.7836 25.1178 19.7836C25.0904 19.7836 25.0139 19.8744 24.9373 19.9855C24.8662 20.0965 24.7842 20.1873 24.7623 20.1873C24.7404 20.1873 24.7185 20.2227 24.7185 20.263C24.7185 20.3085 24.6803 20.3539 24.6365 20.369C24.5928 20.3892 24.5545 20.4296 24.5545 20.47C24.5545 20.5103 24.5053 20.581 24.4451 20.6264C24.3849 20.6769 24.3357 20.7425 24.3357 20.7778C24.3357 20.8131 24.3193 20.8434 24.2974 20.8434C24.2701 20.8434 24.1935 20.9343 24.117 21.0453C24.0459 21.1563 23.9639 21.2472 23.942 21.2472C23.9201 21.2472 23.8982 21.2825 23.8982 21.3229C23.8982 21.3683 23.8599 21.4137 23.8162 21.4289C23.7724 21.4491 23.7342 21.4894 23.7342 21.5298C23.7342 21.5702 23.6849 21.6408 23.6248 21.6863C23.5646 21.7367 23.5154 21.8023 23.5154 21.8377C23.5154 21.873 23.499 21.9033 23.4771 21.9033C23.4498 21.9033 23.3732 21.9941 23.2967 22.1052C23.2256 22.2162 23.1435 22.307 23.1217 22.307C23.0998 22.307 23.0779 22.3373 23.0779 22.3726C23.0779 22.408 23.0287 22.4736 22.9685 22.524C22.9084 22.5695 22.8592 22.6401 22.8592 22.6805C22.8592 22.7209 22.8209 22.7612 22.7771 22.7814C22.7334 22.7966 22.6951 22.842 22.6951 22.8874C22.6951 22.9278 22.6732 22.9631 22.6514 22.9631C22.6295 22.9631 22.5474 23.054 22.4764 23.165C22.3998 23.276 22.3232 23.3669 22.3014 23.3669C22.274 23.3669 22.2576 23.3972 22.2576 23.4325C22.2576 23.4678 22.2084 23.5334 22.1482 23.5839C22.0881 23.6293 22.0389 23.7 22.0389 23.7403C22.0389 23.7807 22.0006 23.8211 21.9568 23.8413C21.9131 23.8564 21.8748 23.9018 21.8748 23.9473C21.8748 23.9876 21.8529 24.023 21.831 24.023C21.8092 24.023 21.7271 24.1138 21.656 24.2248C21.5795 24.3359 21.5029 24.4267 21.481 24.4267C21.4537 24.4267 21.4373 24.457 21.4373 24.4923C21.4373 24.5277 21.3881 24.5933 21.3279 24.6437C21.2678 24.6892 21.2185 24.7598 21.2185 24.8002C21.2185 24.8406 21.1803 24.8809 21.1365 24.9011C21.0928 24.9163 21.0545 24.9617 21.0545 25.0071C21.0545 25.0475 21.0326 25.0828 21.0107 25.0828C20.9889 25.0828 20.9068 25.1737 20.8357 25.2847C20.7592 25.3957 20.6826 25.4866 20.6607 25.4866C20.6334 25.4866 20.617 25.5168 20.617 25.5522C20.617 25.5875 20.5678 25.6531 20.5076 25.7036C20.4474 25.749 20.3982 25.8197 20.3982 25.86C20.3982 25.9004 20.3599 25.9408 20.3162 25.961C20.2724 25.9761 20.2342 26.0114 20.2342 26.0417C20.2342 26.077 20.1576 26.1729 20.0646 26.2587C19.917 26.395 19.8459 26.4202 19.5506 26.4354C19.3592 26.4455 19.1623 26.4354 19.1076 26.4051C19.0037 26.3496 18.1014 25.5572 16.6357 24.2299C16.1326 23.7807 15.6131 23.3265 15.4818 23.2205C15.3451 23.1196 14.8857 22.7158 14.4592 22.3171C14.0326 21.9235 13.6607 21.6005 13.6334 21.6005C13.606 21.6005 13.5459 21.555 13.4912 21.4995C13.442 21.444 13.3654 21.3986 13.3217 21.3986C13.2779 21.3986 13.2342 21.3683 13.2178 21.333C13.2013 21.2876 13.0045 21.2724 12.4685 21.2724C11.9326 21.2724 11.7357 21.2876 11.7193 21.333C11.7029 21.3683 11.6646 21.3986 11.6209 21.3986C11.4568 21.3986 10.8826 22.0093 10.8826 22.1859C10.8826 22.2515 10.8607 22.307 10.8279 22.307C10.7951 22.307 10.7732 22.4988 10.7732 22.7865C10.7732 23.0742 10.7951 23.2659 10.8279 23.2659C10.8607 23.2659 10.8826 23.3215 10.8826 23.3871C10.8826 23.4527 10.9373 23.5687 11.0029 23.6495C11.074 23.7302 11.1506 23.8261 11.1834 23.8615C11.2107 23.8968 11.3201 23.9977 11.424 24.0886C11.5279 24.1794 11.9982 24.5983 12.4631 25.0273C12.9334 25.4512 13.4256 25.8802 13.5568 25.9862C13.6935 26.0871 14.1748 26.506 14.6287 26.9249C15.6295 27.8334 16.5373 28.6207 16.7615 28.7771C16.8545 28.8377 16.9474 28.9184 16.9693 28.9538C16.9912 28.9891 17.0514 29.0194 17.0896 29.0194C17.1334 29.0194 17.1717 29.0396 17.1717 29.0648C17.1717 29.09 17.2428 29.1254 17.3357 29.1456C17.4287 29.1657 17.4998 29.196 17.4998 29.2213C17.4998 29.2465 17.5764 29.2768 17.6639 29.297C17.7568 29.3171 17.8279 29.3474 17.8279 29.3727C17.8279 29.3929 17.9318 29.4231 18.0576 29.4433C18.1834 29.4635 18.3092 29.5039 18.331 29.5392C18.3857 29.62 20.5678 29.625 20.6771 29.5443C20.7209 29.5089 20.8412 29.4686 20.9451 29.4484C21.049 29.4282 21.1639 29.3929 21.1912 29.3727C21.224 29.3525 21.306 29.3171 21.3826 29.297C21.4537 29.2768 21.5467 29.2314 21.5849 29.2011C21.7545 29.0598 21.8201 29.0194 21.8639 29.0194C21.9732 29.0194 22.9139 28.2169 22.9139 28.121C22.9139 28.0857 22.9303 28.0605 22.9576 28.0605C22.9795 28.0605 23.056 27.9696 23.1326 27.8586C23.2037 27.7476 23.2857 27.6567 23.3076 27.6567C23.3295 27.6567 23.3514 27.6214 23.3514 27.581C23.3514 27.5356 23.3896 27.4902 23.4334 27.475C23.4771 27.4548 23.5154 27.4145 23.5154 27.3741C23.5154 27.3337 23.5646 27.2631 23.6248 27.2176C23.6849 27.1672 23.7342 27.1016 23.7342 27.0662C23.7342 27.0309 23.7506 27.0006 23.7779 27.0006C23.7998 27.0006 23.8764 26.9098 23.9529 26.7988C24.024 26.6877 24.106 26.5969 24.1279 26.5969C24.1498 26.5969 24.1717 26.5615 24.1717 26.5212C24.1717 26.4758 24.2099 26.4303 24.2537 26.4152C24.2974 26.395 24.3357 26.3546 24.3357 26.3143C24.3357 26.2739 24.3849 26.2032 24.4451 26.1578C24.5053 26.1073 24.5545 26.0417 24.5545 26.0064C24.5545 25.9711 24.5709 25.9408 24.5982 25.9408C24.6201 25.9408 24.6967 25.8499 24.7732 25.7389C24.8443 25.6279 24.9264 25.537 24.9482 25.537C24.9701 25.537 24.992 25.5068 24.992 25.4714C24.992 25.4361 25.0412 25.3705 25.1014 25.32C25.1615 25.2746 25.2107 25.2039 25.2107 25.1636C25.2107 25.1232 25.249 25.0828 25.2928 25.0626C25.3365 25.0475 25.3748 25.0021 25.3748 24.9566C25.3748 24.9163 25.3912 24.8809 25.4185 24.8809C25.4404 24.8809 25.517 24.7901 25.5935 24.6791C25.6646 24.568 25.7467 24.4772 25.7685 24.4772C25.7904 24.4772 25.8123 24.4469 25.8123 24.4116C25.8123 24.3762 25.8615 24.3106 25.9217 24.2602C25.9818 24.2147 26.031 24.1441 26.031 24.1037C26.031 24.0633 26.0693 24.023 26.1131 24.0028C26.1568 23.9876 26.1951 23.9422 26.1951 23.8968C26.1951 23.8564 26.217 23.8211 26.2389 23.8211C26.2607 23.8211 26.3428 23.7302 26.4139 23.6192C26.4904 23.5082 26.567 23.4173 26.5943 23.4173C26.6162 23.4173 26.6326 23.3871 26.6326 23.3517C26.6326 23.3164 26.6818 23.2508 26.742 23.2003C26.8021 23.1549 26.8514 23.0842 26.8514 23.0439C26.8514 23.0035 26.8896 22.9631 26.9334 22.9429C26.9771 22.9278 27.0154 22.8824 27.0154 22.8369C27.0154 22.7966 27.0373 22.7612 27.0592 22.7612C27.081 22.7612 27.1631 22.6704 27.2342 22.5594C27.3107 22.4483 27.3873 22.3575 27.4146 22.3575C27.4365 22.3575 27.4529 22.3272 27.4529 22.2919C27.4529 22.2566 27.5021 22.1909 27.5623 22.1405C27.6224 22.0951 27.6717 22.0244 27.6717 21.984C27.6717 21.9437 27.7099 21.9033 27.7537 21.8831C27.7974 21.8679 27.8357 21.8225 27.8357 21.7771C27.8357 21.7367 27.8576 21.7014 27.8795 21.7014C27.9014 21.7014 27.9834 21.6106 28.0545 21.4995C28.131 21.3885 28.2076 21.2976 28.2349 21.2976C28.2568 21.2976 28.2732 21.2674 28.2732 21.232C28.2732 21.1967 28.3225 21.1311 28.3826 21.0806C28.4428 21.0352 28.492 20.9646 28.492 20.9242C28.492 20.8838 28.5303 20.8434 28.574 20.8232C28.6178 20.8081 28.656 20.7627 28.656 20.7173C28.656 20.6769 28.6779 20.6416 28.6998 20.6416C28.7217 20.6416 28.8037 20.5507 28.8748 20.4397C28.9514 20.3286 29.0279 20.2378 29.0553 20.2378C29.0771 20.2378 29.0935 20.2075 29.0935 20.1722C29.0935 20.1369 29.1428 20.0713 29.2029 20.0208C29.2631 19.9754 29.3123 19.8997 29.3123 19.8593C29.3123 19.8189 29.3342 19.7836 29.356 19.7836C29.3834 19.7836 29.4982 19.6524 29.6185 19.4909C29.8537 19.1729 29.8646 19.1578 30.0232 18.9811C30.0834 18.9155 30.1326 18.8297 30.1326 18.7893C30.1326 18.754 30.1545 18.7237 30.1764 18.7237C30.2037 18.7237 30.3185 18.5925 30.4389 18.431C30.674 18.1131 30.6849 18.0979 30.8435 17.9213C30.9037 17.8557 30.9529 17.7699 30.9529 17.7396C30.9529 17.7043 30.9912 17.6639 31.035 17.6437C31.0787 17.6286 31.117 17.5831 31.117 17.5428C31.117 17.5024 31.1498 17.462 31.1881 17.4519C31.2373 17.4317 31.2537 17.2601 31.2537 16.8009C31.2537 16.3012 31.2318 16.1347 31.1553 15.9833C31.1006 15.8823 31.035 15.7965 31.0076 15.7965C30.9748 15.7965 30.9529 15.7612 30.9529 15.7208C30.9529 15.6805 30.8873 15.6098 30.8053 15.5593C30.7178 15.5089 30.6303 15.4433 30.6084 15.4079C30.5865 15.3726 30.5318 15.3423 30.4881 15.3423C30.4498 15.3423 30.406 15.3171 30.3951 15.2818C30.3732 15.2212 29.1975 15.1657 29.0389 15.2212Z" fill="white"/>
</svg>
